<svg
  height="446.95056"
  viewBox="0 0 241.80811 118.25567"
  fill="none"
  stroke="currentColor"
  aria-hidden="true"
  xmlns="http://www.w3.org/2000/svg">
  <defs id="defs1">
    <clipPath clipPathUnits="userSpaceOnUse" id="clipPath2">
      <path d="M 0,600 H 1000 V 0 H 0 Z" transform="translate(-160.0806,-344.63921)" id="path2" />
    </clipPath>
    <clipPath clipPathUnits="userSpaceOnUse" id="clipPath4">
      <path d="M 0,600 H 1000 V 0 H 0 Z" transform="translate(-561.59471,-456.37011)" id="path4" />
    </clipPath>
    <clipPath clipPathUnits="userSpaceOnUse" id="clipPath6">
      <path d="M 0,600 H 1000 V 0 H 0 Z" transform="translate(-604.65431,-409.66851)" id="path6" />
    </clipPath>
    <clipPath clipPathUnits="userSpaceOnUse" id="clipPath8">
      <path d="M 0,600 H 1000 V 0 H 0 Z" transform="translate(-648.38752,-409.47361)" id="path8" />
    </clipPath>
    <clipPath clipPathUnits="userSpaceOnUse" id="clipPath10">
      <path d="M 0,600 H 1000 V 0 H 0 Z" transform="translate(-669.64262,-456.37011)" id="path10" />
    </clipPath>
    <clipPath clipPathUnits="userSpaceOnUse" id="clipPath12">
      <path d="M 0,600 H 1000 V 0 H 0 Z" transform="translate(-729.42482,-411.71971)" id="path12" />
    </clipPath>
    <clipPath clipPathUnits="userSpaceOnUse" id="clipPath14">
      <path d="M 0,600 H 1000 V 0 H 0 Z" transform="translate(-770.58984,-456.37011)" id="path14" />
    </clipPath>
    <clipPath clipPathUnits="userSpaceOnUse" id="clipPath16">
      <path d="M 0,600 H 1000 V 0 H 0 Z" transform="translate(-821.0635,-457.29491)" id="path16" />
    </clipPath>
    <clipPath clipPathUnits="userSpaceOnUse" id="clipPath18">
      <path d="M 0,600 H 1000 V 0 H 0 Z" transform="translate(-562.24121,-281.22561)" id="path18" />
    </clipPath>
    <clipPath clipPathUnits="userSpaceOnUse" id="clipPath20">
      <path d="M 0,600 H 1000 V 0 H 0 Z" transform="translate(-604.39162,-290.9863)" id="path20" />
    </clipPath>
    <clipPath clipPathUnits="userSpaceOnUse" id="clipPath22">
      <path d="M 0,600 H 1000 V 0 H 0 Z" transform="translate(-660.52931,-337.91851)" id="path22" />
    </clipPath>
    <clipPath clipPathUnits="userSpaceOnUse" id="clipPath24">
      <path d="M 0,600 H 1000 V 0 H 0 Z" transform="translate(-705.60162,-262.69731)" id="path24" />
    </clipPath>
    <clipPath clipPathUnits="userSpaceOnUse" id="clipPath26">
      <path d="M 0,600 H 1000 V 0 H 0 Z" transform="translate(-752.93259,-279.7627)" id="path26" />
    </clipPath>
    <clipPath clipPathUnits="userSpaceOnUse" id="clipPath28">
      <path d="M 0,600 H 1000 V 0 H 0 Z" transform="translate(-810.29792,-251.1436)" id="path28" />
    </clipPath>
    <clipPath clipPathUnits="userSpaceOnUse" id="clipPath30">
      <path d="M 0,600 H 1000 V 0 H 0 Z" transform="translate(-860.87402,-251.19531)" id="path30" />
    </clipPath>
    <clipPath clipPathUnits="userSpaceOnUse" id="clipPath32">
      <path d="M 0,600 H 1000 V 0 H 0 Z" transform="translate(-631.05371,-112.2715)" id="path32" />
    </clipPath>
    <clipPath clipPathUnits="userSpaceOnUse" id="clipPath34">
      <path d="M 0,600 H 1000 V 0 H 0 Z" transform="translate(-653.54981,-185.76561)" id="path34" />
    </clipPath>
    <clipPath clipPathUnits="userSpaceOnUse" id="clipPath36">
      <path d="M 0,600 H 1000 V 0 H 0 Z" transform="translate(-705.32712,-187.1523)" id="path36" />
    </clipPath>
    <clipPath clipPathUnits="userSpaceOnUse" id="clipPath38">
      <path d="M 0,600 H 1000 V 0 H 0 Z" transform="translate(-794.30964,-185.35251)" id="path38" />
    </clipPath>
    <clipPath clipPathUnits="userSpaceOnUse" id="clipPath40">
      <path d="M 0,600 H 1000 V 0 H 0 Z" transform="translate(-844.98445,-98.701202)" id="path40" />
    </clipPath>
    <clipPath clipPathUnits="userSpaceOnUse" id="clipPath42">
      <path d="M 0,600 H 1000 V 0 H 0 Z" transform="translate(-889.9678,-141.4062)" id="path42" />
    </clipPath>
    <clipPath clipPathUnits="userSpaceOnUse" id="clipPath44">
      <path d="M 0,600 H 1000 V 0 H 0 Z" transform="translate(-949.87502,-101.7607)" id="path44" />
    </clipPath>
    <clipPath clipPathUnits="userSpaceOnUse" id="clipPath46">
      <path d="M 0,600 H 1000 V 0 H 0 Z" transform="translate(-381.68991,-313.35891)" id="path46" />
    </clipPath>
  </defs>
  <g id="layer-MC0" transform="matrix(0.26458332,0,0,0.26458334,-35.676025,-31.685612)">
    <path id="path3"
      d="m 0,0 c 0.148,-5.788 0.365,-11.414 0.646,-16.721 0.281,-5.453 0.568,-10.383 0.854,-14.65 0.278,-4.281 0.589,-7.853 0.925,-10.618 0.484,-4.054 0.927,-4.592 1.304,-4.776 1.251,-0.752 2.313,-1.122 3.222,-1.122 0.215,0 0.421,0.021 0.619,0.062 0.948,0.2 1.964,0.549 3.022,1.034 l 0.243,0.112 0.042,0.265 c 0.199,1.28 0.154,3.068 -0.14,5.467 -0.279,2.318 -0.568,4.805 -0.852,7.459 -0.281,2.658 -0.424,5.272 -0.424,7.767 0,2.482 0.369,4.566 1.102,6.203 0.091,0.215 0.53,0.732 2.634,0.903 1.741,0.141 3.663,0.189 5.709,0.14 2.203,-0.051 4.127,-0.122 5.884,-0.214 1.927,-0.098 3.172,-0.043 3.858,0.187 1.243,0.57 1.808,1.633 1.637,3.069 -0.137,1.218 -0.306,2.379 -0.509,3.483 -0.38,1.511 -2.76,1.511 -3.543,1.511 -1.837,0 -3.959,-0.118 -6.307,-0.352 -2.318,-0.239 -4.521,-0.455 -6.603,-0.645 -2.582,-0.236 -3.436,-0.043 -3.663,0.058 -0.064,0.07 -0.402,0.583 -0.7,3.827 -0.232,2.567 -0.422,5.763 -0.563,9.5 -0.142,3.742 -0.19,7.824 -0.142,12.134 0.044,4.229 0.139,8.362 0.284,12.283 0.142,3.821 0.38,7.059 0.707,9.624 0.443,3.51 0.917,3.929 0.941,3.95 0.697,0.353 2.097,0.647 4.163,0.875 2.103,0.233 4.363,0.401 6.714,0.498 2.372,0.089 4.602,0.187 6.691,0.284 2.143,0.096 3.529,0.242 4.265,0.455 2.123,0.756 2.085,2.046 1.875,2.746 -0.33,1.109 -0.795,1.772 -1.425,2.027 l -0.096,0.029 c -0.481,0.089 -1.481,0.256 -3.004,0.497 -1.446,0.229 -3.192,0.456 -5.495,0.714 -2.165,0.239 -4.47,0.432 -6.849,0.571 -2.276,0.137 -4.58,0.234 -6.847,0.285 C 8.027,48.967 6.116,48.895 4.495,48.707 2.757,48.5 1.638,48.129 1.07,47.566 0.726,47.218 0.337,46.342 0.074,42.484 -0.117,39.682 -0.26,36.038 -0.35,31.656 -0.447,27.26 -0.447,22.256 -0.35,16.781 -0.262,11.388 -0.144,5.742 0,0"
      transform="matrix(1.0166686,0,0,-1.0166686,653.4205,194.3488)" clip-path="url(#clipPath4)" />
    <path id="path5"
      d="m 0,0 c 0.291,-0.592 1.17,-0.845 2.939,-0.845 1.487,0 3.316,0.072 5.436,0.213 2.085,0.135 4.39,0.35 6.852,0.64 2.415,0.289 4.695,0.569 6.832,0.854 2.13,0.288 3.952,0.519 5.466,0.71 1.499,0.189 2.436,0.285 2.782,0.285 1.311,0 2.063,0.726 2.063,1.991 0,0.997 -0.094,2.34 -0.291,4.136 -0.135,0.811 -0.902,1.308 -2.277,1.474 -1.165,0.149 -2.66,0.15 -4.438,0.002 C 23.776,9.335 21.964,9.156 19.658,8.894 17.694,8.663 15.74,8.473 13.849,8.327 12.003,8.185 10.39,8.113 9.053,8.113 7.464,8.113 6.967,8.44 6.789,8.662 6.737,8.735 6.472,9.264 6.356,12.398 c -0.096,2.395 -0.096,5.516 0,9.279 0.087,3.701 0.253,8.003 0.495,12.787 l 0.209,4.26 c 0.166,3.366 0.333,6.779 0.498,10.238 0.241,4.963 0.505,9.865 0.784,14.57 0.292,4.922 0.503,9.18 0.642,13.018 l 0.153,4.19 c 0.074,2.077 0.14,3.903 0.201,5.478 0.096,2.621 0.094,4.188 -0.008,4.8 C 9.107,92.237 8.551,93.033 7.678,93.382 6.879,93.706 6.012,93.763 5.095,93.551 4.228,93.346 3.428,92.982 2.719,92.473 1.985,91.949 1.538,91.546 1.284,91.156 1.2,90.991 1.095,90.786 0.877,86.763 0.733,84.146 0.594,80.793 0.449,76.513 0.305,72.348 0.186,67.538 0.096,62.218 -0.002,56.908 -0.1,51.457 -0.192,45.867 -0.293,39.881 -0.361,34.509 -0.403,29.444 -0.452,24.084 -0.477,19.293 -0.477,15.08 -0.477,10.878 -0.452,7.383 -0.403,4.692 -0.335,0.504 -0.097,0.141 0,0"
      transform="matrix(1.0166686,0,0,-1.0166686,697.19785,241.82885)" clip-path="url(#clipPath6)" />
    <path id="path7"
      d="m 0,0 c 0.562,-2.041 1.635,-2.509 2.493,-2.509 0.255,0 0.497,0.041 0.697,0.095 1.376,0.374 2.349,1.162 2.913,2.422 0.076,0.296 0.185,1.254 0.446,6.213 0.189,3.728 0.357,8.324 0.497,13.661 0.143,5.403 0.285,11.306 0.428,17.701 0.142,6.397 0.284,12.437 0.426,18.128 0.142,5.687 0.26,10.615 0.358,14.784 0.086,4.02 0.182,6.762 0.279,7.943 0.099,1.716 0.243,3.333 0.428,4.806 0.188,1.525 0.308,2.949 0.358,4.236 0.044,1.314 0.019,2.407 -0.077,3.344 -0.102,0.982 -0.377,1.761 -0.815,2.317 L 8.348,93.224 C 7.81,93.646 7.125,93.964 6.31,94.169 4.671,94.574 3.002,94.583 1.613,94.082 0.822,93.795 0.338,93.485 0.062,93.059 -0.025,92.889 -0.133,92.678 -0.209,89.214 -0.258,86.987 -0.302,84.049 -0.35,80.396 -0.399,76.762 -0.424,72.623 -0.424,68.093 c 0,-4.533 0.025,-9.247 0.074,-14.011 L -0.209,39.937 C -0.16,35.289 -0.312,31.121 -0.263,27.424 -0.215,23.73 -0.387,20.673 -0.387,18.258 v -4.192 c 0,-0.693 0.152,-1.608 0.056,-2.876 C -0.425,10.052 -0.397,8.789 -0.449,7.328 -0.498,5.951 -0.448,4.599 -0.4,3.311 -0.349,1.979 -0.203,0.904 0,0"
      transform="matrix(1.0166686,0,0,-1.0166686,741.66003,242.02699)" clip-path="url(#clipPath8)" />
    <path id="path9"
      d="m 0,0 c 0.148,-5.788 0.365,-11.414 0.646,-16.721 0.28,-5.432 0.567,-10.362 0.853,-14.651 0.279,-4.285 0.591,-7.858 0.926,-10.617 0.484,-4.054 0.927,-4.592 1.301,-4.775 0.547,-0.333 1.624,-0.552 3.491,-0.713 1.681,-0.14 3.724,-0.236 6.072,-0.286 1.158,-0.024 2.361,-0.036 3.6,-0.036 1.238,0 2.511,0.012 3.813,0.036 2.756,0.052 5.154,0.123 7.33,0.216 2.096,0.082 4.065,0.202 5.854,0.355 2.218,0.195 2.812,0.306 3.124,0.39 0.606,0.239 1.06,0.74 1.352,1.493 0.263,0.686 0.369,1.427 0.318,2.204 -0.053,0.758 -0.233,1.527 -0.535,2.284 -0.311,0.778 -0.79,1.443 -1.468,2.01 -0.414,0.274 -1.375,0.676 -4.922,1.003 -2.665,0.246 -5.494,0.438 -8.406,0.571 -3.035,0.142 -5.881,0.284 -8.533,0.426 -3.368,0.181 -4.349,0.445 -4.63,0.584 -0.24,0.121 -0.698,0.606 -1.089,2.503 -0.327,1.581 -0.539,3.349 -0.632,5.252 -0.092,1.922 -0.068,3.791 0.072,5.555 0.14,1.753 0.344,2.997 0.599,3.677 0.073,0.17 0.52,0.742 3.213,0.983 2.082,0.186 4.341,0.257 6.912,0.209 2.367,-0.046 4.755,-0.117 7.097,-0.211 2.306,-0.101 3.737,-0.047 4.418,0.186 1.198,0.54 1.963,1.593 2.276,3.129 0.312,1.505 0.049,2.898 -0.767,4.113 -0.495,0.856 -1.927,1.229 -4.494,1.176 -2.355,-0.05 -4.93,-0.217 -7.649,-0.498 -2.674,-0.281 -5.253,-0.519 -7.666,-0.71 -2.968,-0.239 -3.871,-0.045 -4.096,0.058 -0.065,0.071 -0.396,0.582 -0.622,3.746 -0.191,2.557 -0.287,5.725 -0.287,9.415 0,3.663 0.048,7.725 0.142,12.075 0.09,4.172 0.281,8.229 0.568,12.058 0.288,3.8 0.612,6.905 0.991,9.491 0.511,3.523 0.989,3.94 1.014,3.96 0.698,0.353 2.098,0.647 4.164,0.875 2.101,0.233 4.361,0.401 6.714,0.498 2.371,0.089 4.602,0.187 6.691,0.284 2.143,0.096 3.529,0.242 4.232,0.445 1.043,0.294 1.421,0.888 1.553,1.332 0.17,0.562 0.171,1.156 0.004,1.767 -0.154,0.566 -0.393,1.093 -0.706,1.565 -0.308,0.467 -0.64,0.824 -1.015,1.081 -0.35,0.208 -1.276,0.53 -5.254,0.921 -2.911,0.282 -6.152,0.474 -9.632,0.571 -3.497,0.094 -6.814,0.02 -9.863,-0.217 C 3.851,48.807 1.951,48.34 1.07,47.566 0.726,47.218 0.337,46.342 0.074,42.484 -0.119,39.662 -0.262,36.018 -0.35,31.656 -0.447,27.26 -0.447,22.256 -0.35,16.781 -0.264,11.495 -0.146,5.849 0,0"
      transform="matrix(1.0166686,0,0,-1.0166686,763.26942,194.3488)" clip-path="url(#clipPath10)" />
    <path id="path11"
      d="m 0,0 c 4.035,-2.019 8.104,-3.042 12.094,-3.042 3.991,0 7.587,0.833 10.676,2.469 1.41,0.705 2.606,1.948 3.554,3.694 0.916,1.685 1.627,3.616 2.112,5.742 0.477,2.115 0.792,4.343 0.933,6.624 0.144,2.291 0.167,4.484 0.069,6.517 -0.094,2.07 -0.364,3.858 -0.8,5.316 -0.46,1.531 -1,2.538 -1.662,3.091 -0.952,0.737 -2.631,1.121 -5.136,1.173 -2.376,0.043 -4.884,-0.075 -7.454,-0.356 C 11.79,30.935 9.408,30.574 7.303,30.153 5.097,29.711 3.713,29.291 3.054,28.856 1.358,27.625 1.67,26.57 2.005,26.054 c 0.423,-0.66 0.819,-1.315 1.212,-1.993 0.262,-0.404 0.921,-0.666 3.391,-0.728 3.487,-0.095 7.952,-0.024 12,-0.21 2.397,-0.121 3.121,-0.432 3.34,-0.606 0.206,-0.165 0.586,-0.703 0.813,-2.443 0.18,-1.424 0.18,-3.012 -10e-4,-4.717 C 22.575,13.663 22.178,12.006 21.579,10.436 21.003,8.927 20.182,7.811 19.154,7.13 18.713,6.863 17.93,6.517 16.826,6.103 15.734,5.695 14.425,5.466 12.932,5.423 11.429,5.385 9.787,5.633 8.047,6.185 6.333,6.723 4.577,7.787 2.842,9.333 c -2.493,2.407 -4.534,5.6 -6.064,9.491 -1.54,3.923 -2.605,8.329 -3.167,13.099 -0.564,4.779 -0.684,9.819 -0.354,14.98 0.33,5.166 1.068,10.209 2.194,14.988 1.119,4.778 2.638,9.194 4.514,13.126 1.856,3.9 4.066,7.053 6.573,9.377 1.514,1.425 3.01,2.191 4.449,2.277 1.493,0.092 2.977,-0.044 4.397,-0.407 1.384,-0.36 2.74,-0.741 4.027,-1.131 1.368,-0.425 2.605,-0.313 3.693,0.346 0.928,0.619 1.582,1.25 1.997,1.93 0.513,0.841 0.077,1.99 -1.325,3.501 -0.618,0.715 -1.701,1.45 -3.218,2.186 v 0 c -1.511,0.731 -3.314,1.2 -5.358,1.396 -2.038,0.195 -4.293,0 -6.708,-0.579 C 6.069,93.334 3.563,92.01 1.05,89.981 -2.031,87.577 -4.735,83.855 -6.986,78.92 -9.22,74.023 -11.001,68.512 -12.281,62.541 -13.563,56.559 -14.331,50.214 -14.566,43.683 -14.802,37.12 -14.44,30.87 -13.491,25.105 -12.548,19.314 -10.98,14.102 -8.831,9.611 -6.654,5.067 -3.683,1.833 0,0"
      transform="matrix(1.0166686,0,0,-1.0166686,824.04809,239.74344)" clip-path="url(#clipPath12)" />
    <path id="path13"
      d="m 0,0 c 0.148,-5.788 0.365,-11.414 0.646,-16.721 0.28,-5.432 0.567,-10.362 0.853,-14.651 0.279,-4.285 0.591,-7.858 0.926,-10.617 0.484,-4.054 0.927,-4.592 1.301,-4.775 0.547,-0.333 1.624,-0.552 3.491,-0.713 1.681,-0.14 3.724,-0.236 6.072,-0.286 1.158,-0.024 2.361,-0.036 3.6,-0.036 1.238,0 2.511,0.012 3.813,0.036 2.756,0.052 5.154,0.123 7.33,0.216 2.096,0.082 4.065,0.202 5.854,0.355 2.218,0.195 2.812,0.306 3.124,0.39 0.606,0.239 1.06,0.74 1.352,1.493 0.263,0.686 0.369,1.427 0.318,2.204 -0.053,0.758 -0.233,1.527 -0.535,2.284 -0.311,0.778 -0.79,1.443 -1.468,2.01 -0.414,0.274 -1.375,0.676 -4.922,1.003 -2.665,0.246 -5.494,0.438 -8.406,0.571 -3.035,0.142 -5.881,0.284 -8.533,0.426 -3.368,0.181 -4.349,0.445 -4.63,0.584 -0.239,0.121 -0.697,0.605 -1.089,2.503 -0.327,1.581 -0.539,3.349 -0.632,5.252 -0.092,1.922 -0.068,3.791 0.072,5.555 0.14,1.753 0.344,2.997 0.599,3.677 0.073,0.17 0.52,0.742 3.213,0.983 2.082,0.186 4.34,0.257 6.912,0.209 2.367,-0.046 4.755,-0.117 7.097,-0.211 2.306,-0.101 3.737,-0.047 4.418,0.186 1.198,0.54 1.963,1.593 2.276,3.129 0.312,1.505 0.049,2.898 -0.767,4.113 -0.495,0.856 -1.92,1.229 -4.494,1.176 -2.355,-0.05 -4.93,-0.217 -7.649,-0.498 -2.674,-0.281 -5.253,-0.519 -7.666,-0.71 -2.967,-0.239 -3.871,-0.045 -4.096,0.058 -0.065,0.071 -0.396,0.582 -0.622,3.746 -0.191,2.557 -0.287,5.725 -0.287,9.415 0,3.663 0.048,7.725 0.142,12.075 0.09,4.172 0.281,8.229 0.568,12.058 0.288,3.8 0.612,6.905 0.991,9.491 0.511,3.523 0.989,3.94 1.014,3.96 0.698,0.353 2.098,0.647 4.164,0.875 2.103,0.233 4.363,0.401 6.714,0.498 2.371,0.089 4.602,0.187 6.691,0.284 2.143,0.096 3.529,0.242 4.232,0.445 1.043,0.294 1.421,0.888 1.553,1.332 0.17,0.562 0.171,1.156 0.004,1.767 -0.154,0.566 -0.393,1.093 -0.706,1.565 -0.308,0.467 -0.64,0.824 -1.015,1.081 -0.35,0.208 -1.276,0.53 -5.254,0.921 -2.911,0.282 -6.152,0.474 -9.632,0.571 -3.497,0.094 -6.814,0.02 -9.863,-0.217 C 3.851,48.807 1.951,48.34 1.07,47.566 0.726,47.218 0.337,46.342 0.074,42.484 -0.119,39.662 -0.262,36.018 -0.35,31.656 -0.447,27.26 -0.447,22.256 -0.35,16.781 -0.264,11.495 -0.146,5.849 0,0"
      transform="matrix(1.0166686,0,0,-1.0166686,865.89928,194.3488)" clip-path="url(#clipPath14)" />
    <path id="path15"
      d="m 0,0 c 0.154,-6.017 0.318,-11.344 0.5,-16.286 0.187,-5.311 0.378,-10.078 0.565,-14.296 0.197,-4.332 0.407,-7.71 0.643,-10.328 0.338,-3.793 0.553,-4.385 0.753,-4.679 0.939,-1.149 2.107,-1.785 3.473,-1.888 1.514,-0.114 2.542,0.922 3.092,3.127 0.103,0.697 0.105,2.981 0.005,6.982 -0.093,3.884 -0.26,8.718 -0.496,14.369 C 8.3,-17.365 8.036,-11.364 7.755,-5.014 7.459,1.602 7.226,7.391 7.041,12.684 c -0.187,5.287 -0.28,9.896 -0.28,13.7 0,2.685 0.078,4.069 0.156,4.782 0.207,-0.396 0.509,-1.034 0.942,-2.059 0.888,-2.114 2.035,-5.026 3.406,-8.655 1.372,-3.651 2.911,-7.797 4.616,-12.439 1.663,-4.525 3.409,-9.377 5.189,-14.422 1.714,-4.87 3.485,-9.8 5.263,-14.654 1.752,-4.787 3.344,-9.078 4.763,-12.87 1.463,-3.89 2.675,-6.965 3.704,-9.401 1.425,-3.368 1.962,-4.079 2.313,-4.34 1.424,-0.982 2.614,-1.464 3.618,-1.464 0.149,0 0.294,0.011 0.435,0.032 1.089,0.159 2.113,0.975 3.04,2.418 0.127,0.188 0.361,0.539 0.656,4.868 0.192,2.913 0.359,6.554 0.497,10.822 0.142,4.409 0.285,9.357 0.426,14.858 0.144,5.525 0.216,11.197 0.216,16.859 0,5.305 -0.024,10.819 -0.073,16.855 -0.049,5.516 -0.145,10.518 -0.284,14.866 -0.142,4.379 -0.334,8.023 -0.571,10.832 -0.328,3.883 -0.732,4.688 -1.106,4.969 -1.686,1.367 -3.117,1.744 -4.252,1.118 -1.029,-0.568 -1.766,-1.23 -2.202,-1.997 -0.081,-0.167 -0.194,-0.395 -0.194,-4.059 0,-2.345 0.047,-5.394 0.143,-9.323 0.097,-3.838 0.19,-8.176 0.288,-13.008 0.091,-4.882 0.21,-9.859 0.354,-14.791 0.141,-5.023 0.259,-9.95 0.357,-14.782 0.089,-4.833 0.162,-9.121 0.211,-12.865 0.044,-3.684 0.021,-6.737 -0.068,-9.072 -0.05,-1.194 -0.108,-1.964 -0.161,-2.462 -0.211,0.432 -0.513,1.101 -0.942,2.137 -0.894,2.157 -2.014,5.069 -3.332,8.654 -1.314,3.554 -2.795,7.712 -4.403,12.361 l -0.62,1.777 c -1.42,4.079 -2.873,8.248 -4.362,12.509 -1.68,4.809 -3.352,9.687 -4.973,14.501 -1.663,4.93 -3.127,9.187 -4.479,13.015 -1.262,3.561 -2.319,6.563 -3.181,9.008 l -0.231,0.659 c -1.232,3.494 -1.628,4.321 -1.818,4.641 -0.639,1.061 -1.439,1.712 -2.377,1.935 -0.89,0.21 -1.839,0.159 -2.826,-0.152 -0.942,-0.297 -1.843,-0.723 -2.68,-1.264 -0.852,-0.554 -1.46,-1.018 -1.864,-1.422 -0.189,-0.192 -0.423,-0.431 -0.57,-4.598 -0.093,-2.646 -0.139,-6 -0.139,-10.254 0,-4.173 0.021,-8.915 0.07,-14.222 C -0.241,11.172 -0.146,5.693 0,0"
      transform="matrix(1.0166686,0,0,-1.0166686,917.21426,193.40859)" clip-path="url(#clipPath16)" />
    <path id="path17"
      d="m 0,0 c 0.28,-5.455 0.567,-10.385 0.854,-14.651 0.278,-4.281 0.588,-7.853 0.924,-10.618 0.486,-4.054 0.928,-4.592 1.303,-4.776 1.252,-0.751 2.314,-1.122 3.222,-1.122 0.216,0 0.422,0.021 0.621,0.063 0.946,0.2 1.963,0.547 3.021,1.034 l 0.243,0.111 0.042,0.266 c 0.2,1.279 0.155,3.068 -0.139,5.465 -0.279,2.319 -0.569,4.806 -0.853,7.46 -0.281,2.659 -0.424,5.272 -0.424,7.767 0,2.482 0.37,4.566 1.103,6.203 0.091,0.215 0.529,0.734 2.635,0.903 1.738,0.141 3.661,0.187 5.708,0.141 2.192,-0.052 4.116,-0.122 5.884,-0.215 1.932,-0.097 3.175,-0.042 3.858,0.188 1.242,0.57 1.808,1.633 1.637,3.068 -0.137,1.216 -0.306,2.377 -0.509,3.484 -0.381,1.51 -2.761,1.51 -3.543,1.51 -1.841,0 -3.962,-0.118 -6.308,-0.351 C 16.962,5.689 14.759,5.476 12.677,5.284 10.096,5.049 9.24,5.242 9.014,5.343 8.948,5.413 8.611,5.926 8.313,9.17 c -0.232,2.566 -0.421,5.763 -0.562,9.499 -0.143,3.743 -0.19,7.825 -0.143,12.134 0.044,4.231 0.139,8.363 0.285,12.283 0.141,3.822 0.379,7.06 0.707,9.624 0.443,3.511 0.917,3.93 0.94,3.951 0.697,0.353 2.098,0.647 4.163,0.875 2.104,0.233 4.363,0.4 6.715,0.497 2.371,0.09 4.602,0.187 6.69,0.284 2.143,0.097 3.529,0.242 4.265,0.455 2.123,0.756 2.086,2.046 1.875,2.746 -0.329,1.109 -0.795,1.773 -1.52,2.055 -0.482,0.091 -1.482,0.258 -3.004,0.498 -1.438,0.227 -3.235,0.461 -5.495,0.715 -2.166,0.238 -4.47,0.431 -6.849,0.57 C 14.104,65.494 11.8,65.59 9.532,65.642 7.381,65.686 5.47,65.615 3.849,65.427 2.111,65.222 0.992,64.85 0.424,64.287 0.079,63.938 -0.31,63.062 -0.572,59.205 -0.764,56.402 -0.906,52.758 -0.996,48.376 c -0.098,-4.395 -0.098,-9.4 0,-14.875 0.088,-5.394 0.206,-11.04 0.35,-16.781 C -0.498,10.933 -0.281,5.307 0,0"
      transform="matrix(1.0166686,0,0,-1.0166686,654.07778,372.41272)" clip-path="url(#clipPath18)" />
    <path id="path19"
      d="m 0,0 c 0.049,-4.648 0.29,-8.815 0.339,-12.514 0.049,-3.693 0.269,-6.75 0.269,-9.165 v -4.192 c 0,-0.692 -0.241,-1.608 -0.337,-2.876 -0.093,-1.138 -0.263,-2.4 -0.314,-3.861 -0.049,-1.377 -0.098,-2.73 -0.05,-4.019 0.051,-1.331 0.148,-2.406 0.351,-3.31 0.561,-2.041 1.611,-2.509 2.468,-2.509 0.255,0 0.485,0.042 0.685,0.095 1.376,0.373 2.343,1.162 2.907,2.422 0.076,0.296 0.182,1.254 0.443,6.213 0.189,3.728 0.355,8.323 0.496,13.66 0.142,5.404 0.283,11.307 0.426,17.702 0.142,6.397 0.284,12.437 0.427,18.128 0.141,5.687 0.259,10.615 0.357,14.784 0.086,4.02 0.181,6.762 0.279,7.944 0.097,1.696 0.24,3.312 0.427,4.805 0.187,1.513 0.307,2.938 0.357,4.236 0.046,1.311 0.022,2.405 -0.075,3.344 -0.102,0.982 -0.377,1.761 -0.815,2.317 L 8.557,53.287 C 8.019,53.71 7.333,54.028 6.519,54.233 4.871,54.64 3.206,54.647 1.821,54.145 1.03,53.858 0.547,53.548 0.271,53.122 0.184,52.952 0.076,52.741 0,49.277 -0.049,47.05 -0.093,44.112 -0.142,40.458 -0.19,36.826 -0.215,32.687 -0.215,28.156 c 0,-4.533 0.025,-9.247 0.073,-14.011 z"
      transform="matrix(1.0166686,0,0,-1.0166686,696.93078,362.48933)" clip-path="url(#clipPath20)" />
    <path id="path21"
      d="m 0,0 c -0.444,1.39 -1.339,2.859 -2.658,4.367 -1.306,1.509 -3.176,2.866 -5.561,4.033 -2.387,1.172 -5.605,1.666 -9.554,1.473 -4.099,-0.197 -7.396,-1.589 -9.797,-4.138 -2.363,-2.512 -4.171,-5.734 -5.374,-9.577 -1.194,-3.815 -1.966,-8.134 -2.296,-12.837 -0.331,-4.664 -0.546,-9.337 -0.639,-13.887 -0.095,-4.138 0.591,-7.732 2.038,-10.685 1.447,-2.931 3.249,-5.508 5.356,-7.66 2.111,-2.16 4.46,-4.096 6.978,-5.755 2.477,-1.638 4.806,-3.35 6.922,-5.086 2.087,-1.719 3.824,-3.598 5.163,-5.585 1.313,-1.946 1.978,-4.362 1.978,-7.179 0,-2.773 -0.802,-4.586 -2.452,-5.543 -1.71,-0.993 -3.707,-1.496 -5.932,-1.496 -2.269,0 -4.609,0.375 -6.959,1.115 -2.383,0.747 -4.248,1.454 -5.531,2.095 -1.348,0.723 -2.672,0.904 -3.932,0.539 -1.227,-0.36 -2.218,-0.987 -2.947,-1.869 -0.736,-0.898 -1.109,-1.866 -1.109,-2.876 0,-0.766 0.322,-1.824 1.851,-2.518 4.764,-2.19 9.331,-3.614 13.575,-4.232 1.583,-0.232 3.095,-0.348 4.531,-0.348 2.446,0 4.671,0.336 6.649,1.007 3.177,1.077 5.706,3.06 7.516,5.894 1.801,2.821 2.616,6.696 2.422,11.514 -0.1,3.3 -0.891,6.137 -2.353,8.431 -1.443,2.259 -3.248,4.282 -5.365,6.015 -2.081,1.704 -4.346,3.32 -6.736,4.803 -2.337,1.447 -4.539,3.057 -6.547,4.784 -1.998,1.72 -3.687,3.691 -5.022,5.859 -1.318,2.135 -1.986,4.845 -1.986,8.062 -0.093,4.921 0.049,9.47 0.425,13.525 0.367,4.044 0.984,7.601 1.831,10.571 0.828,2.9 1.92,5.184 3.244,6.786 1.285,1.55 2.764,2.304 4.522,2.304 3.21,0 5.55,-0.363 6.95,-1.076 1.371,-0.714 2.303,-1.53 2.771,-2.426 0.487,-0.928 0.78,-1.87 0.87,-2.796 0.107,-1.142 0.605,-2.051 1.453,-2.68 0.752,-0.646 1.65,-0.974 2.669,-0.974 1.001,0 1.863,0.246 2.561,0.73 0.699,0.48 1.214,1.157 1.534,2.011 C 1.395,-4.412 1.291,-3.416 0.78,-2.41 0.683,-2.122 0.424,-1.324 0,0"
      transform="matrix(1.0166686,0,0,-1.0166686,754.00421,314.77482)" clip-path="url(#clipPath22)" />
    <path id="path23"
      d="m 0,0 c -0.91,0.561 -2.191,0.528 -3.919,-0.099 -1.562,-0.567 -3.314,-1.088 -5.208,-1.547 -1.882,-0.459 -3.795,-0.647 -5.686,-0.556 -1.787,0.087 -3.361,0.979 -4.68,2.658 -1.465,1.824 -2.776,4.614 -3.896,8.293 -1.114,3.664 -2.041,7.897 -2.755,12.584 -0.708,4.672 -1.112,9.647 -1.201,14.789 -0.095,5.152 0.143,10.127 0.707,14.787 0.558,4.628 1.553,8.896 2.959,12.686 1.384,3.737 3.246,6.608 5.533,8.53 1.086,0.9 2.222,1.447 3.468,1.671 1.291,0.226 2.587,0.294 3.856,0.206 1.309,-0.093 2.587,-0.235 3.797,-0.422 1.28,-0.199 2.53,-0.198 3.712,0.001 1.26,0.21 2.164,0.604 2.762,1.204 0.598,0.596 0.955,1.291 1.064,2.06 0.113,0.769 -0.049,1.546 -0.484,2.313 -0.427,0.74 -1.113,1.379 -2.058,1.905 -0.584,0.291 -1.676,0.24 -3.338,1.24 h -0.002 c -1.656,1 -3.621,0.803 -5.841,0.803 -2.232,0 -4.685,-0.516 -7.29,-1.53 -2.627,-1.022 -5.23,-3.005 -7.739,-5.898 -2.215,-2.604 -4.018,-6.278 -5.36,-10.918 -1.324,-4.583 -2.286,-9.731 -2.856,-15.3 -0.569,-5.521 -0.763,-11.356 -0.575,-17.344 0.19,-5.971 0.718,-11.662 1.57,-16.914 0.853,-5.256 2.058,-9.952 3.58,-13.958 1.54,-4.046 3.412,-6.941 5.565,-8.605 2.146,-1.66 4.544,-2.698 7.128,-3.085 1.448,-0.221 2.886,-0.331 4.304,-0.331 1.065,0 2.116,0.062 3.151,0.187 2.395,0.287 4.583,0.774 6.503,1.445 1.913,0.667 3.378,1.304 4.367,1.898 2.059,1.299 2.739,2.622 2.021,3.933 C 2.56,-2.213 1.508,-1.105 0,0"
      transform="matrix(1.0166686,0,0,-1.0166686,799.8278,391.24986)" clip-path="url(#clipPath24)" />
    <path id="path25"
      d="m 0,0 c 0.054,-0.385 0.118,-1.334 0.168,-3.572 0.049,-2.168 0.073,-4.579 0.073,-7.167 0,-2.589 -0.024,-5.074 -0.073,-7.383 -0.048,-2.294 -0.117,-3.729 -0.208,-4.295 -0.21,-2.076 0.048,-3.441 0.784,-4.172 0.733,-0.737 1.655,-1.003 2.662,-0.773 0.932,0.203 1.82,0.672 2.641,1.39 0.88,0.769 1.307,1.496 1.307,2.226 0,1.211 -0.093,3.129 -0.285,5.865 -0.189,2.621 -0.189,5.948 0.001,9.912 0,1.334 0.096,3.958 0.284,7.799 0.189,3.92 0.38,8.441 0.57,13.44 0.186,5.069 0.401,10.397 0.638,15.99 0.235,5.594 0.45,10.786 0.641,15.572 0.193,4.957 0.31,8.89 0.358,12.024 0.06,4.349 -0.016,5.241 -0.099,5.568 -0.238,0.715 -0.789,1.25 -1.639,1.591 C 7.04,64.327 6.121,64.432 5.098,64.332 4.074,64.226 3.095,63.893 2.186,63.338 1.22,62.745 0.571,61.803 0.263,60.562 -0.04,59.556 -0.232,57.375 -0.327,53.896 -0.422,50.447 -0.47,46.256 -0.47,41.439 c 0,-4.782 0.048,-10.141 0.143,-15.928 L -0.047,8.769 C -0.252,8.704 -0.637,8.6 -1.353,8.444 -2.662,8.168 -4.35,7.883 -6.367,7.597 -8.417,7.315 -10.685,7.028 -13.106,6.746 -15.764,6.443 -18.015,6.213 -19.988,6.04 c -2.139,-0.191 -3.915,-0.353 -5.34,-0.496 -0.856,-0.088 -1.275,-0.118 -1.54,-0.126 -0.082,1.934 -0.065,3.718 -0.065,5.311 v 10.806 c 0,2.89 -0.035,6.061 0.01,9.519 0.049,3.442 0.044,7.08 0.044,10.812 0,3.767 -0.073,7.233 -0.026,10.302 0.045,3.131 -0.028,5.762 -0.028,7.896 v 3.908 c 0,0.604 -0.166,1.434 -1.356,1.958 -0.838,0.364 -1.718,0.491 -2.695,0.388 -0.98,-0.102 -1.87,-0.414 -2.682,-0.927 -0.896,-0.559 -1.394,-1.402 -1.502,-2.501 -0.1,-0.971 -0.073,-2.856 0.072,-5.764 0.147,-2.849 0.311,-5.925 0.503,-9.248 0.186,-3.313 0.354,-6.484 0.496,-9.517 0.143,-2.959 0.215,-5.152 0.215,-6.517 0,-0.822 -0.044,-2.716 -0.142,-5.96 -0.093,-3.125 -0.19,-6.798 -0.284,-11.016 -0.097,-4.222 -0.19,-8.702 -0.284,-13.438 -0.098,-4.741 -0.191,-9.124 -0.284,-13.149 -0.096,-4.132 -0.143,-7.484 -0.143,-10.252 0,-3.805 0.09,-4.61 0.15,-4.846 0.092,-0.558 0.475,-1.254 1.784,-1.408 0.337,-0.038 0.679,-0.057 1.024,-0.057 0.527,0 1.063,0.045 1.603,0.135 0.881,0.142 1.735,0.393 2.537,0.745 0.876,0.38 1.555,0.804 1.802,1.299 l 0.186,0.106 v 0.118 c 0,0.189 -0.156,0.882 -0.206,2.08 -0.048,1.185 -0.16,2.649 -0.208,4.401 -0.052,1.858 -0.18,3.755 -0.315,5.64 -0.143,1.99 -0.256,3.873 -0.304,5.595 -0.045,1.741 -0.077,3.232 -0.077,4.464 0,1.487 0.141,1.78 0.134,1.78 l 0.04,0.042 c 0.184,0.046 0.571,0.126 1.379,0.241 1.322,0.188 3.035,0.378 5.093,0.567 2.081,0.19 4.379,0.373 6.886,0.563 2.461,0.188 4.802,0.332 6.953,0.43 2.307,0.097 3.949,0.141 5.166,0.141 C -0.589,0.065 -0.191,0.03 0,0"
      transform="matrix(1.0166686,0,0,-1.0166686,847.94772,373.9)" clip-path="url(#clipPath26)" />
    <path id="path27"
      d="M 0,0 C 0.604,0.238 1.06,0.739 1.353,1.494 1.615,2.184 1.722,2.925 1.669,3.697 1.616,4.456 1.437,5.225 1.134,5.98 0.822,6.76 0.345,7.425 -0.333,7.991 c -0.414,0.274 -1.374,0.676 -4.922,1.004 -2.681,0.246 -5.51,0.439 -8.407,0.569 -3.033,0.143 -5.88,0.285 -8.531,0.427 -3.367,0.18 -4.349,0.445 -4.632,0.585 -0.238,0.12 -0.696,0.605 -1.088,2.503 -0.328,1.585 -0.541,3.352 -0.633,5.251 -0.091,1.915 -0.066,3.784 0.072,5.555 0.14,1.753 0.344,2.997 0.599,3.677 0.073,0.17 0.521,0.743 3.214,0.983 2.079,0.187 4.342,0.26 6.912,0.209 2.364,-0.045 4.753,-0.116 7.097,-0.211 2.308,-0.1 3.736,-0.045 4.419,0.186 1.197,0.541 1.962,1.593 2.274,3.129 0.313,1.505 0.049,2.899 -0.767,4.114 -0.493,0.855 -1.91,1.223 -4.494,1.175 -2.36,-0.049 -4.933,-0.216 -7.65,-0.498 -2.67,-0.28 -5.249,-0.519 -7.665,-0.71 -2.971,-0.239 -3.87,-0.045 -4.096,0.058 -0.064,0.07 -0.395,0.583 -0.621,3.746 -0.191,2.553 -0.288,5.721 -0.288,9.416 0,3.662 0.048,7.724 0.143,12.074 0.09,4.19 0.281,8.247 0.567,12.058 0.288,3.8 0.612,6.904 0.991,9.492 0.511,3.523 0.99,3.94 1.015,3.96 0.697,0.353 2.097,0.647 4.163,0.875 2.103,0.233 4.363,0.4 6.715,0.497 2.371,0.09 4.601,0.187 6.69,0.284 2.143,0.097 3.528,0.242 4.233,0.446 1.042,0.294 1.42,0.886 1.553,1.332 0.169,0.561 0.17,1.155 0.004,1.767 -0.156,0.57 -0.395,1.098 -0.707,1.563 -0.305,0.466 -0.637,0.824 -1.014,1.082 -0.351,0.208 -1.275,0.53 -5.253,0.921 -2.913,0.282 -6.154,0.474 -9.634,0.571 -3.497,0.093 -6.814,0.021 -9.863,-0.217 -3.223,-0.254 -5.123,-0.721 -6.003,-1.495 -0.345,-0.349 -0.734,-1.225 -0.997,-5.082 -0.191,-2.803 -0.334,-6.447 -0.423,-10.829 -0.098,-4.395 -0.098,-9.4 0,-14.875 0.088,-5.394 0.206,-11.04 0.349,-16.781 0.151,-5.824 0.367,-11.45 0.647,-16.72 0.28,-5.455 0.567,-10.385 0.853,-14.651 0.279,-4.281 0.589,-7.853 0.925,-10.618 0.485,-4.054 0.928,-4.592 1.302,-4.775 0.549,-0.332 1.625,-0.552 3.491,-0.712 1.688,-0.141 3.731,-0.238 6.071,-0.286 1.159,-0.024 2.362,-0.036 3.6,-0.036 1.238,0 2.512,0.012 3.812,0.036 2.73,0.05 5.128,0.121 7.331,0.215 2.093,0.083 4.062,0.202 5.854,0.355 C -0.904,-0.193 -0.311,-0.084 0,0"
      transform="matrix(1.0166686,0,0,-1.0166686,906.26923,402.99614)" clip-path="url(#clipPath28)" />
    <path id="path29"
      d="m 0,0 c 1.424,-0.98 2.614,-1.463 3.62,-1.463 0.149,0 0.293,0.011 0.434,0.031 1.09,0.161 2.114,0.978 3.039,2.419 0.127,0.189 0.361,0.539 0.656,4.868 0.193,2.942 0.36,6.583 0.497,10.822 0.143,4.408 0.284,9.358 0.427,14.859 0.142,5.537 0.215,11.209 0.215,16.859 0,5.305 -0.025,10.818 -0.074,16.854 C 8.765,70.806 8.669,75.808 8.53,80.116 8.39,84.476 8.198,88.12 7.96,90.947 7.634,94.828 7.229,95.634 6.854,95.917 5.165,97.284 3.733,97.661 2.602,97.034 1.572,96.466 0.836,95.804 0.399,95.037 0.318,94.871 0.206,94.643 0.206,90.979 0.206,88.633 0.253,85.584 0.349,81.655 0.446,77.817 0.539,73.479 0.637,68.647 0.728,63.767 0.847,58.79 0.99,53.856 1.133,48.833 1.25,43.907 1.348,39.074 1.437,34.242 1.511,29.954 1.56,26.21 1.603,22.519 1.58,19.466 1.49,17.138 1.44,15.944 1.383,15.173 1.33,14.676 c -0.211,0.431 -0.514,1.099 -0.941,2.136 -0.891,2.148 -2.012,5.06 -3.333,8.655 -1.313,3.551 -2.753,7.594 -4.404,12.359 -1.617,4.644 -3.274,9.405 -4.98,14.288 -1.696,4.855 -3.369,9.733 -4.975,14.501 -1.617,4.8 -3.124,9.178 -4.478,13.014 -1.262,3.561 -2.32,6.563 -3.181,9.009 l -0.231,0.658 c -1.233,3.495 -1.628,4.322 -1.819,4.641 -0.637,1.061 -1.437,1.712 -2.377,1.936 -0.889,0.209 -1.839,0.158 -2.825,-0.152 -0.94,-0.297 -1.843,-0.722 -2.681,-1.265 -0.851,-0.554 -1.459,-1.018 -1.864,-1.422 -0.188,-0.192 -0.422,-0.431 -0.569,-4.597 -0.091,-2.619 -0.138,-6.068 -0.138,-10.254 0,-4.174 0.02,-8.916 0.069,-14.223 0.043,-5.132 0.139,-10.611 0.285,-16.285 0.15,-5.898 0.313,-11.225 0.499,-16.285 0.187,-5.312 0.378,-10.078 0.565,-14.296 0.196,-4.339 0.407,-7.718 0.644,-10.327 0.337,-3.794 0.55,-4.387 0.752,-4.68 0.939,-1.15 2.108,-1.785 3.473,-1.889 1.042,-0.074 2.41,0.394 3.092,3.127 0.103,0.697 0.105,2.982 0.005,6.983 -0.092,3.864 -0.254,8.564 -0.495,14.368 -0.235,5.636 -0.5,11.635 -0.781,17.985 -0.288,6.427 -0.528,12.381 -0.714,17.698 -0.187,5.314 -0.281,9.924 -0.281,13.701 0,2.682 0.079,4.066 0.157,4.779 0.207,-0.396 0.509,-1.033 0.942,-2.057 0.89,-2.118 2.035,-5.031 3.405,-8.655 1.372,-3.65 2.912,-7.797 4.618,-12.439 1.661,-4.52 3.407,-9.373 5.189,-14.421 1.704,-4.846 3.475,-9.777 5.262,-14.655 1.752,-4.786 3.344,-9.077 4.762,-12.869 C -4.555,9.854 -3.343,6.778 -2.313,4.34 -0.887,0.973 -0.351,0.263 0,0"
      transform="matrix(1.0166686,0,0,-1.0166686,957.68838,402.94358)" clip-path="url(#clipPath30)" />
    <path id="path31"
      d="m 0,0 c -0.098,1.317 -0.236,3.871 -0.427,7.808 -0.189,3.873 -0.476,8.398 -0.852,13.45 -0.378,5.068 -0.76,10.396 -1.138,15.989 -0.359,5.254 -0.693,10.49 -0.995,15.562 -0.284,4.782 -0.571,8.829 -0.854,12.03 -0.351,3.967 -0.424,5.106 -0.431,5.446 -0.211,1.25 -0.843,2.329 -1.875,3.206 -1.011,0.86 -2.194,1.403 -3.522,1.613 -1.344,0.201 -2.643,-0.037 -3.864,-0.7 -1.254,-0.676 -2.148,-1.85 -2.657,-3.488 -0.476,-1.52 -1.139,-3.699 -1.992,-6.546 -0.854,-2.841 -1.8,-6.042 -2.844,-9.598 -1.045,-3.555 -2.113,-7.257 -3.198,-11.093 -1.075,-3.773 -2.151,-7.405 -3.199,-10.794 l -0.095,-0.31 c -1.005,-3.241 -1.899,-6.124 -2.675,-8.648 -0.787,-2.546 -1.384,-4.381 -1.782,-5.485 -0.172,-0.597 -0.293,-0.885 -0.363,-1.022 -0.075,0.088 -0.258,0.366 -0.53,1.184 -0.386,1.166 -0.958,3.072 -1.7,5.667 l -2.629,9.173 c -0.991,3.443 -2.02,7.146 -3.057,11.008 -1.032,3.842 -2.086,7.6 -3.131,11.169 -1.043,3.553 -1.968,6.757 -2.768,9.596 -0.824,2.898 -1.505,5.007 -2.086,6.458 -0.339,0.791 -1.1,1.429 -2.259,1.897 -1.074,0.444 -2.254,0.697 -3.511,0.753 -1.263,0.046 -2.446,-0.184 -3.504,-0.69 -1.167,-0.558 -1.812,-1.51 -1.907,-2.764 -0.098,-0.465 -0.272,-1.709 -0.579,-4.162 -0.284,-2.28 -0.619,-5.15 -0.997,-8.615 -0.377,-3.456 -0.804,-7.344 -1.279,-11.657 -0.475,-4.31 -0.975,-8.692 -1.495,-13.147 -0.52,-4.455 -1.042,-8.863 -1.563,-13.221 -0.522,-4.369 -0.975,-8.34 -1.349,-11.806 -0.378,-3.508 -0.692,-6.472 -0.922,-8.892 -0.245,-2.461 -0.409,-3.963 -0.502,-4.628 -0.191,-2.653 -0.453,-5.252 -0.782,-7.725 -0.341,-2.581 -0.41,-4.419 -0.208,-5.619 0.089,-0.539 0.448,-1.244 1.654,-1.542 0.548,-0.134 1.131,-0.202 1.741,-0.202 0.299,0 0.605,0.016 0.915,0.049 0.915,0.094 1.794,0.295 2.615,0.598 0.86,0.323 1.403,0.663 1.659,1.039 l 0.078,0.114 0.008,0.137 c 0.852,13.636 1.665,25.161 2.416,34.254 0.759,9.191 1.398,16.823 1.921,22.888 0.515,5.993 0.968,10.797 1.348,14.279 0.378,3.46 0.662,6.187 0.845,8.119 0.057,0.258 0.112,0.419 0.154,0.517 0.205,-0.154 0.37,-0.29 0.5,-0.412 0.558,-1.321 1.304,-3.52 2.218,-6.539 0.946,-3.128 2.011,-6.657 3.196,-10.59 1.186,-3.934 2.396,-8.011 3.626,-12.222 1.231,-4.222 2.394,-8.132 3.483,-11.738 1.175,-3.873 2.058,-6.72 2.777,-8.962 1.149,-3.613 1.392,-3.973 1.498,-4.129 0.657,-0.878 1.761,-1.376 3.278,-1.479 1.473,-0.096 2.691,0.112 3.605,0.621 0.381,0.195 0.914,0.816 2.226,4.028 0.948,2.323 2.005,5.276 3.141,8.776 1.113,3.434 2.301,7.204 3.63,11.523 1.275,4.169 2.51,8.249 3.698,12.232 1.181,3.979 2.27,7.606 3.265,10.874 1.157,3.786 1.839,6.154 2.213,7.488 0.106,0.425 0.201,0.663 0.267,0.793 l 0.607,-0.606 4.401,-76.245 c -0.112,-2.086 0.25,-3.43 1.103,-4.11 0.844,-0.675 1.785,-0.877 2.796,-0.595 0.943,0.265 1.805,0.789 2.563,1.554 0.817,0.818 1.215,1.561 1.214,2.309 -0.094,1.226 -0.281,3.138 -0.571,5.844 C 0.284,-7.303 0.094,-3.968 0,0"
      transform="matrix(1.0166686,0,0,-1.0166686,724.03728,544.18305)" clip-path="url(#clipPath32)" />
    <path id="path33"
      d="M 0,0 -0.083,0.083 C -0.62,0.506 -1.306,0.824 -2.121,1.029 -3.767,1.436 -5.428,1.445 -6.819,0.94 c -0.79,-0.286 -1.274,-0.596 -1.55,-1.021 -0.086,-0.17 -0.194,-0.38 -0.271,-3.845 -0.048,-2.227 -0.093,-5.165 -0.142,-8.819 -0.048,-3.584 -0.072,-7.724 -0.072,-12.303 0,-4.596 0.024,-9.309 0.072,-14.011 l 0.142,-14.144 c 0.049,-4.649 0.031,-8.817 0.08,-12.514 0.049,-3.693 0.01,-6.751 0.01,-9.166 v -4.191 c 0,-0.688 0.019,-1.576 -0.077,-2.876 -0.095,-1.153 -0.135,-2.416 -0.187,-3.863 -0.049,-1.376 -0.033,-2.728 0.016,-4.017 0.051,-1.327 0.18,-2.402 0.384,-3.311 0.561,-2.04 1.627,-2.508 2.484,-2.508 0.255,0 0.493,0.042 0.694,0.095 1.377,0.374 2.346,1.161 2.909,2.421 0.077,0.301 0.186,1.262 0.446,6.213 0.188,3.716 0.355,8.313 0.497,13.662 0.142,5.403 0.284,11.306 0.427,17.7 0.141,6.398 0.284,12.438 0.427,18.128 0.141,5.688 0.259,10.616 0.356,14.784 0.087,4.025 0.184,6.767 0.28,7.945 0.097,1.695 0.241,3.311 0.427,4.805 0.188,1.513 0.308,2.938 0.358,4.236 0.046,1.313 0.02,2.407 -0.077,3.343 C 0.713,-1.335 0.438,-0.556 0,0"
      transform="matrix(1.0166686,0,0,-1.0166686,746.90837,469.46389)" clip-path="url(#clipPath34)" />
    <path id="path35"
      d="m 0,0 c -0.28,0.187 -0.911,0.369 -3.606,0.437 -1.943,0.045 -4.292,0.046 -6.988,0 -2.905,-0.052 -5.875,-0.148 -8.828,-0.285 -3.149,-0.139 -6.119,-0.308 -8.826,-0.5 -2.787,-0.192 -5.048,-0.378 -6.909,-0.566 -2.784,-0.278 -3.222,-0.503 -3.409,-0.688 -0.769,-0.664 -1.242,-1.814 -1.445,-3.517 -0.217,-1.735 0.273,-3.107 1.45,-4.072 0.676,-0.566 1.866,-0.79 3.619,-0.681 1.616,0.09 3.369,0.216 5.27,0.353 1.895,0.143 3.715,0.26 5.465,0.358 1.624,0.085 2.795,0.01 3.487,-0.23 0.093,-0.138 0.376,-0.781 0.537,-3.565 0.142,-2.459 0.214,-5.68 0.214,-9.57 0,-3.889 -0.072,-8.404 -0.215,-13.419 -0.142,-5.024 -0.308,-10.141 -0.496,-15.351 -0.19,-5.216 -0.382,-10.33 -0.572,-15.358 -0.191,-5.039 -0.334,-9.561 -0.423,-13.441 -0.096,-3.9 -0.121,-7.16 -0.073,-9.69 0.077,-3.974 0.306,-4.198 0.524,-4.413 0.928,-0.83 2.226,-1.305 3.857,-1.409 0.1,-0.006 0.2,-0.01 0.298,-0.01 1.577,0 2.829,0.807 3.735,2.422 0.154,0.308 0.348,1.102 0.475,4.538 0.096,2.506 0.146,5.74 0.146,9.614 0,3.89 -0.024,8.277 -0.073,13.158 l -0.284,29.858 c -0.049,4.853 -0.049,9.25 0,13.069 0.044,3.766 0.164,6.96 0.356,9.494 0.245,3.286 0.522,3.82 0.562,3.88 0.584,0.584 1.424,0.966 2.501,1.136 1.171,0.189 2.418,0.307 3.708,0.35 l 0.711,0.027 c 1.065,0.039 2.085,0.076 3.058,0.116 1.273,0.048 2.295,0.343 3.032,0.873 1.417,0.978 1.875,2.308 1.325,3.846 C 1.677,-1.825 0.952,-0.743 0,0"
      transform="matrix(1.0166686,0,0,-1.0166686,799.54873,468.05409)" clip-path="url(#clipPath36)" />
    <path id="path37"
      d="M 0,0 C -0.781,0.312 -1.7,0.418 -2.727,0.317 -3.751,0.213 -4.73,-0.122 -5.639,-0.677 -6.604,-1.269 -7.253,-2.21 -7.562,-3.452 c -0.301,-1.001 -0.495,-3.182 -0.59,-6.666 -0.094,-3.461 -0.142,-7.653 -0.142,-12.457 0,-4.761 0.048,-10.119 0.142,-15.927 l 0.28,-16.744 c -0.205,-0.065 -0.59,-0.169 -1.306,-0.324 -1.313,-0.278 -3.001,-0.563 -5.013,-0.847 -2.035,-0.279 -4.303,-0.566 -6.74,-0.852 -2.629,-0.298 -4.88,-0.529 -6.881,-0.705 -2.139,-0.191 -3.917,-0.353 -5.34,-0.497 -0.856,-0.088 -1.552,-0.117 -1.818,-0.125 -0.083,1.959 -0.34,3.7 -0.34,5.311 v 10.806 c 0,2.89 0.242,6.061 0.286,9.519 0.048,3.442 0.181,7.08 0.181,10.812 0,3.725 0.22,7.192 0.269,10.302 0.045,3.131 0.264,5.762 0.264,7.896 v 3.908 c 0,0.604 -0.39,1.434 -1.579,1.958 -0.838,0.362 -1.83,0.493 -2.808,0.388 -0.981,-0.102 -1.927,-0.414 -2.737,-0.927 -0.896,-0.559 -1.422,-1.401 -1.531,-2.501 -0.1,-0.973 -0.088,-2.858 0.059,-5.764 0.146,-2.848 0.304,-5.925 0.495,-9.248 0.187,-3.313 0.352,-6.483 0.493,-9.518 0.143,-2.958 0.214,-5.151 0.214,-6.516 0,-0.821 -0.045,-2.715 -0.143,-5.961 -0.094,-3.124 -0.192,-6.798 -0.285,-11.015 -0.097,-4.221 -0.191,-8.702 -0.284,-13.438 -0.098,-4.741 -0.191,-9.124 -0.284,-13.148 -0.096,-4.133 -0.143,-7.487 -0.143,-10.253 0,-3.805 0.09,-4.61 0.15,-4.846 0.091,-0.558 0.475,-1.254 1.783,-1.407 0.337,-0.039 0.681,-0.059 1.027,-0.059 0.527,0 1.062,0.045 1.601,0.136 0.876,0.14 1.729,0.392 2.536,0.745 0.877,0.38 1.28,0.806 1.527,1.3 l -0.091,0.105 v 0.118 c 0,0.189 0.119,0.882 0.07,2.08 -0.049,1.184 -0.021,2.649 -0.07,4.401 -0.051,1.835 -0.11,3.732 -0.245,5.641 -0.147,2.034 -0.223,3.864 -0.271,5.593 -0.043,1.742 -0.059,3.234 -0.059,4.464 0,1.458 0.139,1.762 0.141,1.778 l 0.047,0.045 c 0.185,0.046 0.575,0.125 1.379,0.242 1.35,0.19 3.065,0.379 5.096,0.565 2.081,0.191 4.378,0.374 6.886,0.563 2.463,0.189 4.803,0.333 6.954,0.43 2.297,0.098 3.94,0.143 5.166,0.143 0.802,0 1.199,-0.036 1.391,-0.066 0.053,-0.383 0.119,-1.333 0.169,-3.572 0.049,-2.168 0.073,-4.579 0.073,-7.167 0,-2.589 -0.024,-5.073 -0.073,-7.383 -0.048,-2.295 -0.117,-3.729 -0.209,-4.295 -0.208,-2.076 0.05,-3.442 0.785,-4.172 0.73,-0.737 1.651,-1.003 2.662,-0.773 0.931,0.203 1.818,0.671 2.639,1.391 0.881,0.767 1.309,1.496 1.309,2.225 0,1.21 -0.093,3.128 -0.285,5.865 -0.189,2.622 -0.189,5.948 0.001,9.913 0,1.352 0.096,3.976 0.283,7.798 0.195,4.044 0.386,8.566 0.57,13.44 0.187,5.068 0.402,10.397 0.637,15.99 0.237,5.594 0.451,10.786 0.643,15.572 0.192,4.957 0.309,8.891 0.357,12.025 0.06,4.353 -0.015,5.242 -0.098,5.567 C 1.397,-0.874 0.847,-0.339 0,0"
      transform="matrix(1.0166686,0,0,-1.0166686,890.01447,469.88387)" clip-path="url(#clipPath38)" />
    <path id="path39"
      d="m 0,0 c -0.312,0.779 -0.791,1.443 -1.468,2.01 -0.649,0.429 -2.259,0.758 -4.922,1.003 -2.675,0.246 -5.504,0.437 -8.407,0.57 -3.033,0.142 -5.88,0.284 -8.531,0.426 -3.369,0.181 -4.35,0.445 -4.631,0.585 -0.239,0.12 -0.697,0.606 -1.089,2.503 -0.328,1.588 -0.541,3.355 -0.632,5.253 -0.091,1.913 -0.067,3.782 0.073,5.554 0.138,1.749 0.342,2.993 0.598,3.676 0.073,0.17 0.521,0.742 3.213,0.983 2.087,0.187 4.348,0.255 6.912,0.209 2.358,-0.045 4.746,-0.116 7.098,-0.21 2.307,-0.098 3.734,-0.047 4.419,0.185 1.197,0.541 1.962,1.595 2.274,3.129 0.313,1.504 0.049,2.897 -0.766,4.113 -0.495,0.857 -1.924,1.222 -4.495,1.177 -2.353,-0.05 -4.926,-0.218 -7.65,-0.499 -2.671,-0.279 -5.25,-0.519 -7.665,-0.71 -2.968,-0.237 -3.87,-0.045 -4.097,0.059 -0.063,0.07 -0.395,0.584 -0.621,3.746 -0.19,2.555 -0.287,5.723 -0.287,9.415 0,3.646 0.048,7.709 0.142,12.074 0.091,4.178 0.282,8.234 0.568,12.058 0.288,3.8 0.612,6.905 0.991,9.492 0.511,3.524 0.99,3.939 1.014,3.96 0.698,0.352 2.1,0.647 4.165,0.875 2.094,0.232 4.354,0.4 6.714,0.497 2.37,0.09 4.602,0.186 6.69,0.285 2.147,0.097 3.533,0.242 4.233,0.444 1.041,0.294 1.419,0.887 1.553,1.332 0.169,0.562 0.17,1.157 0.003,1.769 -0.156,0.568 -0.394,1.096 -0.706,1.564 -0.307,0.466 -0.64,0.825 -1.015,1.08 -0.349,0.208 -1.273,0.53 -5.253,0.922 -2.905,0.282 -6.147,0.473 -9.633,0.571 -3.5,0.092 -6.815,0.019 -9.863,-0.218 -3.222,-0.254 -5.121,-0.721 -6.003,-1.495 -0.345,-0.348 -0.733,-1.225 -0.997,-5.082 -0.193,-2.83 -0.335,-6.474 -0.423,-10.829 -0.098,-4.395 -0.098,-9.4 0,-14.873 0.087,-5.36 0.201,-10.849 0.349,-16.783 0.15,-5.822 0.367,-11.448 0.647,-16.719 0.279,-5.436 0.566,-10.366 0.852,-14.652 0.279,-4.279 0.589,-7.851 0.925,-10.617 0.487,-4.056 0.929,-4.593 1.301,-4.775 0.548,-0.333 1.625,-0.553 3.493,-0.713 1.689,-0.141 3.732,-0.238 6.072,-0.286 1.158,-0.025 2.36,-0.037 3.599,-0.037 1.238,0 2.512,0.012 3.814,0.037 2.742,0.051 5.14,0.122 7.33,0.215 2.095,0.082 4.064,0.203 5.853,0.356 2.212,0.194 2.81,0.305 3.124,0.39 0.606,0.238 1.061,0.739 1.353,1.494 0.262,0.688 0.369,1.429 0.316,2.202 C 0.481,-1.524 0.302,-0.756 0,0"
      transform="matrix(1.0166686,0,0,-1.0166686,941.53394,557.97953)" clip-path="url(#clipPath40)" />
    <path id="path41"
      d="m 0,0 c -1.103,-3.139 -2.51,-5.793 -4.184,-7.89 -1.653,-2.071 -3.519,-3.728 -5.547,-4.925 -2.036,-1.206 -3.986,-2.098 -5.796,-2.655 -1.795,-0.556 -3.435,-0.909 -4.875,-1.048 -1.511,-0.146 -2.482,-0.266 -2.927,-0.359 -0.618,-0.075 -1.081,-0.012 -1.346,0.193 -0.305,0.227 -0.506,0.479 -0.615,0.77 -0.124,0.332 -0.21,0.719 -0.255,1.15 -0.046,0.455 -0.07,0.82 -0.07,1.091 0,0.187 -0.021,1.52 -0.069,3.991 -0.048,2.462 -0.122,5.498 -0.212,9.098 -0.095,3.699 -0.167,7.619 -0.214,11.651 -0.045,4.172 -0.094,8.084 -0.143,11.733 -0.049,3.653 -0.093,6.729 -0.142,9.249 -0.048,2.504 -0.073,3.894 -0.073,4.181 0,0.778 0.109,1.03 0.205,1.22 0.091,0.058 0.58,0.144 2.711,0.144 h 3.198 c 1.517,0 3.25,-0.077 5.152,-0.495 1.903,-0.418 3.875,-1.054 5.859,-2.023 1.966,-0.963 3.828,-2.373 5.536,-4.259 1.699,-1.883 3.076,-4.39 4.092,-7.485 C 1.304,20.222 1.82,16.347 1.82,11.786 1.728,7.113 1.115,3.148 0,0 m 0.768,38.353 c -2.455,2.546 -5.235,4.521 -8.263,5.871 -3.021,1.338 -5.902,2.281 -8.567,2.802 -2.665,0.524 -5.021,0.766 -7.007,0.726 -1.989,-0.055 -3.2,-0.129 -3.732,-0.231 -0.734,-0.184 -1.457,-0.326 -2.144,-0.419 -0.742,-0.098 -1.451,-0.274 -2.11,-0.525 -0.691,-0.264 -1.264,-0.674 -1.71,-1.223 -0.46,-0.59 -0.545,-1.384 -0.434,-2.356 0.064,-0.604 0.231,-2.073 0.231,-5.63 V 26.705 c 0,-3.912 -0.138,-8.397 -0.234,-13.712 -0.097,-4.976 -0.237,-10.025 -0.329,-15.138 -0.189,-8.02 -0.355,-14.959 -0.45,-20.623 -0.097,-5.778 -0.133,-10.293 -0.085,-13.802 0.048,-3.55 0.139,-6.287 0.281,-8.136 0.148,-1.886 0.373,-3.109 0.681,-3.721 0.396,-0.878 1.256,-1.844 3.107,-1.496 1.407,0.269 2.392,1.115 2.912,2.472 0.203,0.403 0.487,1.305 0.618,4.469 0.097,2.275 0.19,4.693 0.287,7.253 0.094,2.559 0.192,4.902 0.285,7.033 0.115,2.762 0.377,3.236 0.424,3.298 0.028,0.027 0.084,0.077 0.198,0.138 0.075,-0.041 0.238,-0.15 0.52,-0.437 2.048,-1.949 4.415,-4.293 7.238,-7.166 2.751,-2.8 5.41,-5.474 7.965,-8.038 2.5,-2.5 4.802,-4.728 6.842,-6.622 2.739,-2.548 3.604,-3.028 3.974,-3.151 0.425,-0.186 0.853,-0.279 1.279,-0.279 0.584,0 1.166,0.175 1.741,0.524 0.923,0.561 1.655,1.345 2.176,2.329 0.503,0.946 0.785,1.972 0.838,3.051 0.057,1.168 -0.323,2.055 -1.122,2.629 -0.373,0.282 -1.295,1.011 -2.757,2.196 -1.371,1.101 -3.042,2.476 -5.256,4.329 -1.983,1.66 -4.166,3.54 -6.673,5.747 -2.803,2.482 -5.036,4.491 -7.013,6.308 -0.099,0.1 -0.197,0.194 -0.292,0.282 0.013,0.004 0.027,0.008 0.041,0.012 2.767,0.572 5.606,1.567 8.439,2.954 2.855,1.409 5.47,3.534 7.769,6.317 2.296,2.778 4.216,6.42 5.706,10.822 1.476,4.385 2.369,9.979 2.654,16.636 0.187,6.009 -0.493,11.12 -2.023,15.19 -1.539,4.076 -3.559,7.434 -6.005,9.98"
      transform="matrix(1.0166686,0,0,-1.0166686,987.2671,514.56271)" clip-path="url(#clipPath42)" />
    <path id="path43"
      d="m 0,0 c -0.583,0.974 -1.699,1.415 -3.323,1.306 -1.058,-0.1 -2.865,-0.198 -5.229,-0.283 -2.469,-0.097 -5.006,-0.216 -7.616,-0.358 -2.606,-0.143 -5.045,-0.26 -7.313,-0.353 -2.147,-0.088 -3.728,-0.191 -4.424,-0.285 -1.256,-0.092 -2.252,-0.141 -2.88,-0.141 -0.2,0 -0.542,0.024 -0.582,0.182 -0.032,0.13 -0.062,0.556 0.343,1.711 0.334,0.949 0.786,2.28 1.35,3.975 0.657,1.795 1.749,4.684 3.269,8.667 1.514,3.98 3.244,8.454 5.185,13.43 1.942,4.976 3.956,10.165 6.045,15.568 2.23,5.78 4.182,10.756 5.969,15.211 1.893,4.735 3.526,8.809 4.903,12.222 1.329,3.308 2.283,5.558 2.768,6.528 l 1.07,2.416 c 0.353,0.814 0.556,1.589 0.605,2.299 0.057,0.789 -0.119,1.454 -0.527,1.975 -0.408,0.529 -1.134,0.892 -2.247,1.117 -0.667,0.093 -1.984,0.188 -4.028,0.288 -2.04,0.092 -4.437,0.165 -7.124,0.216 l -10.139,0.16 c -2.569,0.041 -5.014,0.08 -7.346,0.121 -2.75,0.048 -5.169,0.092 -7.249,0.141 -2.114,0.05 -3.493,0.118 -4.238,0.214 -1.681,0.133 -2.502,-0.685 -2.892,-1.392 -0.531,-0.953 -0.668,-2.051 -0.411,-3.266 0.259,-1.197 0.914,-2.246 1.943,-3.112 1.047,-0.903 2.562,-1.251 4.484,-1.047 1.327,0.094 3.102,0.212 5.327,0.353 2.16,0.139 4.481,0.255 7.094,0.357 2.676,0.095 5.111,0.142 7.448,0.142 2.331,0 4.524,-0.048 6.54,-0.142 1.369,0 2.359,-0.069 3.016,-0.252 0.051,-0.09 0.187,-0.484 -0.217,-1.784 -0.798,-2.28 -2.074,-5.692 -3.69,-9.868 -1.706,-4.407 -3.628,-9.312 -5.76,-14.711 -2.133,-5.401 -4.358,-11.019 -6.682,-16.843 -2.506,-6.293 -4.623,-11.547 -6.469,-16.063 -2.158,-5.305 -3.738,-9.261 -4.975,-12.449 -1.394,-3.587 -2.1,-5.437 -2.29,-6.006 -0.699,-2.2 -0.666,-4.14 0.098,-5.766 0.784,-1.665 1.699,-2.634 2.822,-2.974 0.434,-0.108 1.446,-0.181 3.089,-0.223 0.806,-0.026 1.703,-0.039 2.682,-0.039 0.978,0 2.038,0.013 3.172,0.039 2.279,0.041 4.743,0.115 7.4,0.208 2.682,0.098 5.222,0.219 7.55,0.359 2.275,0.135 4.375,0.232 6.237,0.287 1.782,0.04 3.001,0.111 3.596,0.21 1.085,0.112 2.014,0.656 2.76,1.616 0.701,0.904 1.164,1.907 1.375,2.985 C 0.697,-1.943 0.533,-0.918 0,0"
      transform="matrix(1.0166686,0,0,-1.0166686,1048.1729,554.86904)" clip-path="url(#clipPath44)" />
  </g>
  <g id="layer-MC1" class="ffmh-fish" transform="matrix(0.26458332,0,0,0.26458334,-35.676025,-31.685612)">
    <path id="path1"
      d="m 0,0 c -0.046,0.23 -0.087,0.467 -0.128,0.705 -0.127,0.74 -0.259,1.504 -0.544,2.153 L -1.589,5.236 C -1.811,5.954 -2.151,6.526 -2.48,7.08 -2.593,7.269 -2.706,7.458 -2.828,7.682 l -1.276,2.166 c -0.33,0.513 -0.699,0.976 -1.056,1.424 -0.152,0.19 -0.302,0.38 -0.454,0.579 -1.078,1.384 -2.068,2.62 -3.255,3.712 -1.124,1.072 -2.331,2.204 -3.645,3.221 -0.342,0.267 -0.798,0.359 -1.183,0.249 -0.363,-0.087 -0.678,-0.323 -0.866,-0.646 -0.162,-0.281 -0.218,-0.612 -0.162,-0.929 0.005,-0.051 0.015,-0.102 0.029,-0.151 0.419,-1.539 0.923,-2.96 1.49,-4.523 0.097,-0.271 0.204,-0.535 0.31,-0.799 0.175,-0.434 0.341,-0.844 0.458,-1.29 0.202,-0.667 0.434,-1.31 0.667,-1.953 l 0.083,-0.229 c 0.539,-1.418 0.953,-2.832 1.276,-3.985 0.073,-0.312 0.168,-0.622 0.264,-0.928 0.111,-0.359 0.217,-0.699 0.269,-1.035 l 0.386,-1.989 c 0.067,-0.264 0.072,-0.523 0.077,-0.822 0.005,-0.274 0.013,-0.544 0.053,-0.821 0.006,-0.12 0.019,-0.245 0.033,-0.369 0.01,-0.091 0.022,-0.184 0.038,-0.173 -0.06,-0.265 0.073,-0.549 0.06,-0.841 -0.012,-0.117 0.151,-0.243 0.151,-0.369 v -0.139 c 0,-0.238 -0.337,-0.486 -0.381,-0.815 -0.019,-0.046 -0.131,-0.084 -0.156,-0.124 -0.071,-0.114 -0.207,-0.268 -0.281,-0.465 -0.063,-0.081 -0.143,-0.164 -0.202,-0.25 -0.105,-0.153 -0.174,-0.235 -0.249,-0.286 -0.06,-0.041 -0.12,-0.089 -0.17,-0.142 -0.203,-0.217 -0.587,-0.439 -0.873,-0.603 -0.469,-0.226 -0.896,-0.422 -1.431,-0.555 -0.351,-0.114 -0.849,-0.194 -1.212,-0.252 l -2.746,-0.276 c -0.27,-0.001 -0.543,-0.008 -0.817,-0.016 -0.481,-0.013 -0.964,-0.027 -1.398,-0.003 l -0.507,0.037 c -0.56,0.039 -1.09,0.075 -1.55,0.183 -0.037,0.009 -0.075,0.016 -0.114,0.02 -0.481,0.056 -0.929,0.198 -1.403,0.349 l -1.163,0.471 -0.676,0.409 c -0.443,0.327 -0.822,0.695 -1.113,1.076 -0.293,0.401 -0.551,0.896 -0.776,1.471 -0.203,0.598 -0.345,1.225 -0.433,1.904 -0.295,2.511 0.072,5.517 1.12,9.183 0.9,3.058 2.132,6.203 3.663,9.348 0.294,0.595 0.112,1.333 -0.395,1.694 -0.593,0.46 -1.43,0.351 -1.932,-0.279 -2.124,-2.914 -3.944,-6.029 -5.413,-9.27 -1.423,-3.246 -2.752,-6.819 -2.839,-10.976 -0.004,-1.072 0.101,-2.148 0.318,-3.219 0.263,-1.156 0.668,-2.252 1.219,-3.28 0.602,-1.055 1.349,-2.008 2.268,-2.873 l 0.221,-0.185 c 0.358,-0.301 0.729,-0.613 1.194,-0.931 l 1.381,-0.816 c 0.031,-0.018 0.061,-0.034 0.094,-0.049 1.018,-0.465 2.018,-0.904 2.985,-1.139 0.907,-0.291 1.782,-0.443 2.628,-0.589 l 0.428,-0.074 c 1.889,-0.271 3.729,-0.332 5.345,-0.354 0.043,-0.008 0.087,-0.012 0.132,-0.014 0.297,-0.01 0.575,-0.016 0.841,-0.016 0.781,0 1.462,0.047 2.244,0.149 0.95,0.116 1.933,0.326 3.045,0.657 0.917,0.316 1.999,0.733 2.983,1.378 0.548,0.286 1.064,0.674 1.559,1.17 l 0.289,0.268 c 0.348,0.321 0.708,0.653 1.073,1.119 l 0.205,0.301 c 0.611,0.893 1.303,1.905 1.57,2.963 0.173,0.5 0.336,1.055 0.511,1.749 0.088,0.444 0.108,0.847 0.128,1.237 0.008,0.145 0.014,0.29 0.025,0.419 0.057,0.604 0.06,1.199 0.056,1.683 C 0.198,-1.188 0.139,-0.843 0.086,-0.538 0.059,-0.384 0.032,-0.23 0,0"
      transform="matrix(1.0166686,0,0,-1.0166686,245.21371,307.9421)" clip-path="url(#clipPath2)" />
    <path id="path45"
      d="m 0,0 c -5.304,-2.513 -10.626,-5.557 -15.819,-9.048 -5.293,-3.569 -9.989,-7.234 -14.364,-11.211 l -0.907,-0.836 -5.322,-5.469 c -1.151,-1.194 -2.367,-2.376 -3.542,-3.519 -0.696,-0.677 -1.393,-1.354 -2.044,-2.002 l -5.773,-5.348 c -0.712,-0.61 -1.419,-1.227 -2.126,-1.843 -1.253,-1.094 -2.55,-2.224 -3.851,-3.289 -4.876,-4.009 -8.699,-6.949 -12.408,-9.544 -4.418,-3.143 -8.804,-5.986 -13.048,-8.457 -9.094,-5.381 -18.457,-9.753 -27.825,-12.993 -4.963,-1.702 -9.856,-3.054 -14.545,-4.017 -2.312,-0.475 -4.758,-0.877 -7.275,-1.191 -1.098,-0.142 -2.286,-0.255 -3.511,-0.335 l -1.682,-0.091 -1.312,-0.025 -0.817,0.011 c -27.552,-0.822 -51.557,1.737 -73.412,7.821 -24.036,6.547 -46.532,17.803 -65.058,32.555 -9.579,7.588 -18.201,16.232 -25.633,25.699 -1.62,2.035 -3.297,4.341 -5.275,7.252 -1.889,2.81 -3.392,5.309 -4.349,7.234 -0.941,1.87 -1.504,3.808 -1.672,5.739 -0.132,1.816 0.152,3.799 0.746,5.272 l 0.127,0.293 4.123,6.368 c 1.006,1.647 2.181,3.252 3.317,4.804 0.666,0.909 1.332,1.818 1.951,2.713 3.719,5.081 7.623,9.894 11.611,14.311 8.195,9.172 17.319,17.513 27.111,24.785 9.742,7.147 20.407,13.42 31.69,18.639 11.255,5.111 22.999,9.122 34.9,11.92 12.909,2.982 25.157,4.549 36.405,4.657 6.254,0.079 12.756,-0.918 17.707,-1.788 5.694,-1.016 11.719,-2.457 17.905,-4.279 23.102,-6.854 45.649,-18.785 65.211,-34.508 4.249,-3.38 8.672,-7.273 13.893,-12.225 l 6.916,-6.896 c 2.336,-2.248 4.791,-4.409 7.73,-6.805 C -18.837,25.151 -6.992,18.198 4.979,13.689 12.647,10.795 20.351,9.039 27.851,8.442 18.718,7.278 9.385,4.452 0,0 m -266.894,151.403 c 2.194,-0.693 4.211,-1.501 5.698,-2.116 0.376,-0.167 0.769,-0.316 1.158,-0.462 0.547,-0.206 1.064,-0.401 1.53,-0.663 l 2.534,-1.247 c 0.399,-0.173 0.717,-0.404 1.054,-0.649 0.288,-0.21 0.586,-0.426 0.946,-0.62 0.133,-0.089 0.275,-0.174 0.418,-0.258 0.139,-0.083 0.279,-0.159 0.39,-0.247 0.237,-0.266 0.497,-0.515 0.738,-0.708 0.11,-0.1 0.236,-0.199 0.363,-0.297 0.071,-0.055 0.17,-0.132 0.228,-0.183 0.128,-0.224 0.3,-0.488 0.543,-0.737 l 0.105,-0.092 c 0.037,-0.03 0.044,-0.035 0.112,-0.228 0.053,-0.152 0.126,-0.36 0.263,-0.58 0.03,-0.144 0.069,-0.274 0.106,-0.395 0.067,-0.227 0.102,-0.351 0.083,-0.466 l -0.021,-0.136 0.015,-0.136 c 0.043,-0.376 -0.077,-0.891 -0.202,-1.375 -0.196,-0.562 -0.398,-1.142 -0.775,-1.729 -0.231,-0.441 -0.657,-1.006 -0.938,-1.38 l -2.409,-2.798 c -0.288,-0.268 -0.569,-0.548 -0.85,-0.828 -0.445,-0.442 -0.864,-0.86 -1.302,-1.223 l -0.422,-0.349 c -0.633,-0.525 -1.231,-1.022 -1.943,-1.456 -0.589,-0.438 -1.232,-0.76 -1.912,-1.102 l -0.445,-0.225 -1.211,-0.457 -1.207,-0.309 c -0.802,-0.151 -1.633,-0.202 -2.445,-0.158 -0.824,0.07 -1.686,0.251 -2.537,0.53 -0.907,0.325 -1.792,0.731 -2.618,1.201 -3.088,1.81 -6.064,4.642 -9.096,8.651 -1.645,2.209 -3.169,4.582 -4.581,7.064 3.623,3.041 7.268,5.968 10.933,8.783 0.487,-0.166 0.972,-0.329 1.453,-0.489 l 0.094,-0.032 c 0.402,-0.136 0.808,-0.259 1.213,-0.38 0.645,-0.194 1.254,-0.377 1.849,-0.622 0.804,-0.318 1.611,-0.593 2.415,-0.867 z m -22.632,-0.92 -0.055,0.029 c -0.298,0.167 -1.864,1.03 -4.426,2.195 -0.576,0.287 -1.221,0.562 -1.91,0.855 -0.986,0.419 -2.005,0.852 -3.063,1.426 -0.754,0.396 -1.557,0.762 -2.407,1.15 -1.224,0.558 -2.489,1.135 -3.708,1.857 l -3.176,1.738 c -0.702,0.467 -1.418,0.948 -2.147,1.438 l -0.859,0.577 c -0.473,0.334 -0.86,0.702 -1.271,1.092 -0.343,0.326 -0.697,0.661 -1.109,0.984 -0.219,0.361 -0.494,0.676 -0.741,0.958 -0.215,0.246 -0.539,0.618 -0.565,0.776 l -0.027,0.17 -0.082,0.15 c -0.712,1.309 -0.764,2.584 -0.157,4.32 0.255,0.89 0.947,1.88 1.585,2.756 l 0.304,0.357 c 0.298,0.352 0.569,0.673 0.852,0.954 l 1.79,1.657 c 5.118,4.568 10.155,6.531 13.867,5.367 1.825,-0.468 3.764,-1.747 5.921,-3.899 1.515,-1.546 2.923,-3.408 4.301,-5.692 2.269,-3.783 3.609,-7.215 4.587,-9.72 l 0.074,-0.19 c 0.887,-2.369 1.294,-3.802 1.323,-3.905 -2.982,-2.394 -5.951,-4.857 -8.901,-7.4 M 108.127,-35.925 c -0.909,1.756 -1.939,3.51 -3.058,5.212 -0.574,0.88 -1.151,1.709 -1.769,2.542 l -0.967,1.278 -0.245,0.3 c -0.171,0.211 -0.337,0.416 -0.559,0.678 -8.43,10.867 -17.391,19.008 -27.388,24.885 -5.736,3.383 -11.798,5.952 -18.019,7.638 -4.311,1.169 -8.726,1.923 -13.186,2.254 1.299,0.185 2.588,0.409 3.862,0.672 16.616,3.269 29.13,12.944 36.691,20.473 2.62,2.553 5.215,5.522 6.907,7.536 0.664,0.753 1.12,1.404 1.523,1.978 l 0.347,0.489 c 0.516,0.737 1.007,1.486 1.488,2.238 0.947,1.491 1.849,3.016 2.676,4.529 3.392,6.162 6,12.696 7.753,19.418 1.8,6.852 2.585,13.927 2.332,21.031 -0.253,6.977 -1.688,13.992 -4.268,20.852 -2.381,6.288 -5.798,12.469 -10.157,18.372 -3.642,4.933 -8.098,9.718 -14.053,15.085 l -3.907,3.331 c -0.873,0.72 -1.738,1.37 -2.574,1.999 -0.438,0.328 -0.875,0.657 -1.319,1 l -3.831,2.933 -3.987,2.968 c -5.097,3.698 -10.443,7.301 -16.344,11.016 -22.35,14.023 -46.06,25.532 -70.473,34.208 -25.682,9.119 -51.449,14.708 -76.583,16.611 -26.61,2.083 -52.887,-0.014 -78.101,-6.234 -25.018,-6.173 -49.233,-16.439 -71.971,-30.512 -9.008,-5.556 -17.937,-11.81 -26.741,-18.717 -0.087,0.67 -0.209,1.518 -0.375,2.524 -0.632,3.744 -1.682,7.496 -3.123,11.162 -0.797,1.962 -1.965,4.564 -3.941,7.312 -1.714,2.307 -4.225,5.178 -8.441,6.909 -4.544,2.04 -9.993,1.473 -13.56,0.268 -4.396,-1.394 -7.966,-3.699 -10.59,-5.555 l -2.112,-1.512 c -0.876,-0.64 -1.661,-1.341 -2.501,-2.108 -1.231,-1.274 -2.762,-2.86 -3.844,-4.769 -1.253,-2.018 -1.983,-4.093 -2.169,-6.167 -0.212,-1.06 -0.064,-2.088 0.079,-3.082 l 0.047,-0.321 c 0.113,-1.257 0.621,-2.363 1.069,-3.335 0.584,-1.285 1.151,-2.18 1.79,-2.844 0.741,-0.905 1.429,-1.662 2.103,-2.317 l 0.109,-0.092 c 0.336,-0.244 0.671,-0.495 1.004,-0.745 1.195,-0.896 2.431,-1.821 3.75,-2.449 l 0.757,-0.359 c 1.336,-0.634 2.598,-1.233 3.855,-1.766 l 1.414,-0.424 c 1.052,-0.309 2.078,-0.612 3.036,-0.888 1.45,-0.484 2.874,-0.721 4.203,-0.921 l 1.139,-0.185 c 0.886,-0.146 1.733,-0.286 2.511,-0.374 1.85,-0.307 3.505,-0.348 4.966,-0.383 0.388,-0.009 0.76,-0.018 1.13,-0.032 0.772,-0.018 1.466,-0.025 2.078,-0.025 0.232,0 0.449,0.001 0.657,0.003 -6.352,-5.616 -12.622,-11.571 -18.79,-17.856 l -0.078,-0.077 c -0.05,-0.05 -0.143,-0.169 -0.186,-0.227 -3.055,-4.059 -5.844,-8.321 -8.528,-13.032 -2.896,-5.122 -5.043,-9.789 -6.562,-14.269 -0.95,-2.812 -1.582,-5.385 -1.932,-7.861 -0.45,-3.105 -0.421,-5.879 0.089,-8.476 0.583,-3.041 1.997,-5.899 3.97,-8.034 1.801,-1.994 4.25,-3.617 7.302,-4.834 0.075,-0.033 0.198,-0.068 0.278,-0.088 1.111,-0.281 2.193,-0.446 3.518,-0.535 1.224,-0.07 2.429,-0.023 3.571,0.147 2.783,0.396 5.227,1.637 6.872,3.479 1.6,1.753 2.602,4.071 2.977,6.875 0.273,1.894 0.239,4.091 -0.103,6.716 l -1.487,-0.194 1.485,0.229 c -0.164,1.32 -1.385,2.284 -2.764,2.148 -1.338,-0.174 -2.305,-1.403 -2.153,-2.742 0.258,-2.258 0.268,-3.879 0.03,-5.435 -0.256,-1.759 -0.859,-3.18 -1.76,-4.127 -1.111,-1.206 -2.692,-1.636 -3.833,-1.785 -0.783,-0.107 -1.621,-0.129 -2.487,-0.067 -0.812,0.061 -1.65,0.192 -2.328,0.364 -2.181,0.92 -3.893,2.083 -5.103,3.472 -1.304,1.454 -2.188,3.332 -2.558,5.433 -0.659,3.69 -0.077,7.965 1.826,13.442 1.468,4.125 3.529,8.435 6.297,13.171 2.536,4.305 5.263,8.36 8.107,12.056 6.045,5.981 12.176,11.646 18.377,16.983 0.875,-2.332 1.883,-4.611 3.05,-6.805 2.166,-3.955 4.778,-8.089 9.204,-11.54 1.184,-0.874 2.441,-1.639 3.758,-2.285 1.503,-0.693 3.049,-1.2 4.615,-1.511 1.171,-0.206 2.366,-0.311 3.589,-0.311 0.516,0 1.037,0.019 1.563,0.057 l 0.489,0.061 c 0.643,0.079 1.307,0.162 2.021,0.307 l 2.332,0.646 c 1.348,0.505 2.876,1.076 4.096,1.794 1.236,0.608 2.288,1.322 3.305,2.012 l 0.334,0.226 c 2.166,1.539 4.067,3.23 5.698,4.729 l 0.005,-0.005 c 1.197,1.051 1.994,1.875 2.83,2.922 0.794,0.954 1.534,2.055 2.215,3.3 0.542,1.069 1.132,2.37 1.412,3.934 0.204,0.699 0.277,1.466 0.223,2.327 -0.008,0.175 -0.012,0.351 -0.016,0.526 -0.013,0.569 -0.025,1.158 -0.181,1.848 l -0.138,0.462 c -0.375,1.263 -0.799,2.692 -1.728,3.843 -0.423,0.648 -0.91,1.271 -1.371,1.847 -0.384,0.43 -0.798,0.775 -1.199,1.109 -0.152,0.127 -0.305,0.254 -0.462,0.392 -0.605,0.522 -1.169,0.969 -1.734,1.374 -0.434,0.304 -0.867,0.526 -1.284,0.741 -0.183,0.093 -0.367,0.188 -0.591,0.311 -0.295,0.146 -0.591,0.302 -0.889,0.459 -0.911,0.481 -1.853,0.978 -2.816,1.235 l -3.543,1.117 c -0.938,0.35 -1.851,0.496 -2.733,0.637 -0.332,0.054 -0.664,0.107 -1.023,0.176 l -3.597,0.598 c -0.8,0.105 -1.595,0.141 -2.364,0.178 -0.414,0.019 -0.828,0.038 -1.258,0.069 -0.799,0.043 -1.618,0.078 -2.443,0.104 6.637,4.79 13.327,9.211 20.053,13.229 22.271,13.348 45.869,22.967 70.139,28.59 24.42,5.657 49.778,7.317 75.376,4.935 24.216,-2.173 49.036,-7.927 73.771,-17.103 23.538,-8.741 46.351,-20.216 67.803,-34.108 5.652,-3.67 10.736,-7.199 15.526,-10.778 l 3.722,-2.86 3.811,-3.007 c 0.448,-0.355 0.907,-0.71 1.366,-1.066 0.806,-0.623 1.613,-1.247 2.331,-1.852 l 3.382,-2.991 c 5.106,-4.731 9.059,-9.09 12.088,-13.328 3.594,-5.021 6.375,-10.214 8.267,-15.436 2.03,-5.604 3.132,-11.279 3.274,-16.864 C 93.704,80.934 92.996,75.142 91.467,69.566 89.923,63.905 87.664,58.426 84.749,53.275 84.074,52.071 83.308,50.806 82.475,49.52 82.079,48.915 81.68,48.318 81.281,47.757 l -0.25,-0.343 C 80.763,47.043 80.429,46.583 80.27,46.422 80.246,46.398 80.223,46.373 80.201,46.347 78.14,43.957 76.298,41.915 74.007,39.716 64.932,30.896 54.589,25.203 44.084,23.251 33.632,21.213 21.877,22.56 10.088,27.15 c -10.447,4.047 -20.853,10.321 -30.924,18.642 -2.511,2.095 -4.768,4.125 -6.69,6.012 l -6.728,6.867 c -5.514,5.355 -10.257,9.622 -14.924,13.423 -20.925,17.192 -45.183,30.348 -70.155,38.049 -6.812,2.086 -13.224,3.688 -19.607,4.899 -5.967,1.109 -13.087,2.246 -20.65,2.263 -12.666,0 -25.8,-1.527 -40.156,-4.671 -13.014,-2.908 -25.881,-7.15 -38.252,-12.61 -12.41,-5.57 -24.186,-12.33 -35.006,-20.096 -10.837,-7.863 -20.968,-16.923 -30.109,-26.924 -4.424,-4.813 -8.759,-10.043 -12.906,-15.573 -0.676,-0.951 -1.376,-1.886 -2.075,-2.821 -1.289,-1.725 -2.623,-3.508 -3.791,-5.359 l -2.756,-4.168 -2.043,-3.106 c -0.02,-0.031 -0.039,-0.063 -0.057,-0.096 l -0.27,-0.498 c -0.415,-0.79 -0.629,-1.278 -0.887,-1.886 -3.41,-8.1 -2.968,-17.965 1.18,-26.386 1.777,-3.633 3.59,-6.511 5.454,-9.393 2.14,-3.24 4.094,-6 5.972,-8.433 8.236,-10.758 17.808,-20.599 28.444,-29.244 20.369,-16.652 45.174,-29.466 71.726,-37.054 23.792,-6.97 49.739,-10.151 79.303,-9.72 l 0.998,-0.02 3.716,0.095 c 1.717,0.094 3.252,0.22 4.678,0.385 3.052,0.322 6.096,0.773 9.046,1.338 5.673,1.073 11.344,2.547 17.342,4.506 11.197,3.701 22.007,8.578 32.118,14.489 4.838,2.768 9.657,5.839 14.726,9.381 4.152,2.86 8.557,6.192 13.865,10.487 1.413,1.149 2.808,2.344 4.156,3.5 0.808,0.693 1.616,1.386 2.477,2.113 l 6.383,5.819 c 0.722,0.706 1.453,1.405 2.184,2.104 1.319,1.263 2.683,2.568 3.986,3.9 l 4.428,4.531 0.965,0.881 c 3.432,3.077 7.489,6.186 11.73,8.993 4.271,2.814 8.605,5.249 12.881,7.234 9.375,4.336 18.477,6.599 27.06,6.724 8.875,0.176 17.419,-2.111 25.44,-6.821 7.176,-4.172 14.25,-10.625 21.057,-19.218 l 1.364,-1.686 c 0.317,-0.409 0.66,-0.896 1.033,-1.468 0.694,-1.027 1.337,-2.098 1.911,-3.18 1.221,-2.315 2.139,-4.577 2.728,-6.728 0.63,-2.273 0.964,-4.532 0.994,-6.718 0.017,-0.951 -0.041,-1.996 -0.173,-3.221 l -0.258,-1.658 -0.38,-1.545 -0.132,-0.43 c -0.294,-0.962 -0.572,-1.871 -0.977,-2.728 -0.019,-0.039 -0.035,-0.079 -0.05,-0.119 -0.255,-0.688 -0.623,-1.378 -1.011,-2.108 -0.17,-0.319 -0.34,-0.638 -0.502,-0.96 -0.234,-0.35 -0.455,-0.707 -0.676,-1.064 -0.424,-0.683 -0.824,-1.328 -1.309,-1.926 -0.025,-0.029 -0.048,-0.061 -0.07,-0.092 -0.712,-1.027 -1.566,-2.017 -2.424,-2.996 -0.456,-0.569 -1.009,-1.114 -1.595,-1.692 -0.383,-0.376 -0.765,-0.754 -1.128,-1.143 -0.597,-0.558 -1.217,-1.104 -1.839,-1.652 -0.4,-0.353 -0.801,-0.706 -1.198,-1.064 l -3.28,-2.581 -16.594,-11.687 c -0.424,-0.299 -0.663,-0.795 -0.634,-1.312 0.03,-0.517 0.324,-0.983 0.779,-1.231 l 13.652,-7.454 c 5.657,-3.092 10.043,-6.64 13.039,-10.548 3.123,-4.044 4.946,-8.804 5.42,-14.137 0.412,-5.102 -0.418,-10.983 -2.397,-16.998 -2.096,-6.241 -4.945,-11.944 -8.252,-16.513 -3.796,-5.426 -8.019,-10.03 -12.551,-13.68 -4.803,-3.86 -9.992,-6.628 -15.425,-8.229 -5.512,-1.626 -11.431,-2.142 -17.591,-1.534 -5.886,0.577 -12.054,2.111 -18.336,4.561 -5.791,2.24 -11.739,5.251 -17.679,8.95 -5.827,3.626 -11.41,7.733 -16.135,11.87 l -1.465,1.308 c -2.152,1.925 -4.379,3.916 -6.669,5.896 l -1.801,1.528 c -2.194,1.865 -4.462,3.794 -6.717,5.588 -5.574,4.56 -11.513,9.076 -17.648,13.421 -13.027,9.279 -25.618,16.684 -38.504,22.641 -7.916,3.586 -14.673,6.127 -21.262,7.993 -3.983,1.138 -7.677,1.992 -11.28,2.609 -1.793,0.323 -3.725,0.583 -5.915,0.798 -1.109,0.1 -2.112,0.169 -3.082,0.212 -1.02,0.035 -1.907,0.065 -3.338,-0.004 -5.02,-0.077 -9.595,-0.427 -13.424,-0.761 -4.395,-0.39 -8.918,-0.914 -13.441,-1.556 -8.844,-1.243 -17.763,-2.941 -26.511,-5.044 -17.852,-4.327 -34.921,-10.408 -50.735,-18.076 -16.793,-8.18 -31.908,-18.136 -44.92,-29.588 -13.256,-11.569 -24.752,-25.444 -34.173,-41.247 -0.675,-1.148 -0.334,-2.612 0.763,-3.322 0.555,-0.369 1.223,-0.497 1.874,-0.361 0.651,0.136 1.208,0.516 1.556,1.054 9.443,14.128 21.193,26.914 34.921,38.003 12.936,10.419 27.791,19.303 44.15,26.406 7.973,3.44 16.115,6.432 24.204,8.892 7.84,2.415 16.022,4.478 25.015,6.31 8.393,1.71 16.962,3.036 25.466,3.942 4.309,0.456 8.62,0.804 12.812,1.034 4.805,0.257 9.04,0.35 12.671,0.275 l 0.415,0.015 0.14,-0.005 c 0.405,-0.014 1.149,-0.038 1.758,-0.096 0.754,-0.059 1.531,-0.141 2.295,-0.242 1.774,-0.245 3.335,-0.519 4.786,-0.839 3.075,-0.65 6.322,-1.531 9.651,-2.619 6.051,-1.972 12.239,-4.532 18.911,-7.825 11.629,-5.818 23.482,-13.291 35.234,-22.217 5.705,-4.31 11.204,-8.767 16.362,-13.26 2.052,-1.736 4.064,-3.554 6.011,-5.31 l 9.701,-8.982 c 5.5,-5.049 11.478,-9.683 18.277,-14.168 6.943,-4.547 13.671,-8.15 20.567,-11.015 7.842,-3.274 15.692,-5.411 23.331,-6.352 2.813,-0.351 5.641,-0.525 8.454,-0.525 5.754,0 11.439,0.729 16.766,2.168 8.023,2.131 15.889,6.093 22.746,11.459 6.236,4.868 11.767,10.667 16.903,17.723 4.671,6.341 8.382,13.481 11.348,21.839 3.044,8.8 4.327,17.367 3.817,25.461 -0.575,9.203 -4.015,18.607 -9.433,25.791 -1.941,2.613 -4.138,5.061 -6.615,7.366 0.221,0.199 0.442,0.403 0.663,0.608 0.432,0.442 0.872,0.871 1.31,1.297 0.91,0.889 1.851,1.807 2.696,2.813 1.167,1.297 2.53,2.857 3.739,4.545 0.973,1.209 1.817,2.54 2.633,3.827 0.258,0.407 0.517,0.815 0.778,1.217 0.022,0.034 0.043,0.069 0.062,0.104 l 0.503,0.921 c 0.808,1.477 1.645,3.003 2.285,4.6 0.848,1.836 1.486,3.736 2.201,6.096 l 0.764,3.03 c 0.01,0.037 0.018,0.076 0.024,0.114 l 0.538,3.166 c 0.293,2.306 0.43,4.418 0.418,6.457 -0.02,4.191 -0.601,8.426 -1.724,12.58 -1.004,3.778 -2.51,7.612 -4.476,11.395"
      transform="matrix(1.0166686,0,0,-1.0166686,470.51694,339.7438)" clip-path="url(#clipPath46)" />
  </g>
</svg>